<?xml version="1.0" encoding="UTF-8" standalone="no"?>
<!-- Created with Inkscape (http://www.inkscape.org/) -->

<svg
   xmlns:dc="http://purl.org/dc/elements/1.1/"
   xmlns:cc="http://creativecommons.org/ns#"
   xmlns:rdf="http://www.w3.org/1999/02/22-rdf-syntax-ns#"
   xmlns:svg="http://www.w3.org/2000/svg"
   xmlns="http://www.w3.org/2000/svg"
   xmlns:sodipodi="http://sodipodi.sourceforge.net/DTD/sodipodi-0.dtd"
   xmlns:inkscape="http://www.inkscape.org/namespaces/inkscape"
   width="210mm"
   height="297mm"
   viewBox="0 0 210 297"
   version="1.1"
   id="svg8"
   inkscape:version="0.92.2 5c3e80d, 2017-08-06"
   sodipodi:docname="CosanithTheDragon.svg">
  <defs
     id="defs2" />
  <sodipodi:namedview
     id="base"
     pagecolor="#ffffff"
     bordercolor="#666666"
     borderopacity="1.0"
     inkscape:pageopacity="0.0"
     inkscape:pageshadow="2"
     inkscape:zoom="1.4"
     inkscape:cx="366.82389"
     inkscape:cy="480.37964"
     inkscape:document-units="mm"
     inkscape:current-layer="layer5"
     showgrid="false"
     inkscape:window-width="1916"
     inkscape:window-height="1036"
     inkscape:window-x="0"
     inkscape:window-y="22"
     inkscape:window-maximized="0" />
  <metadata
     id="metadata5">
    <rdf:RDF>
      <cc:Work
         rdf:about="">
        <dc:format>image/svg+xml</dc:format>
        <dc:type
           rdf:resource="http://purl.org/dc/dcmitype/StillImage" />
        <dc:title />
      </cc:Work>
    </rdf:RDF>
  </metadata>
  <g
     inkscape:groupmode="layer"
     id="layer5"
     inkscape:label="BackgroundBlack"
     style="display:none">
    <rect
       style="fill:#000000;fill-opacity:1;stroke:none;stroke-width:1.69999993;stroke-linecap:square;stroke-linejoin:miter;stroke-miterlimit:30;stroke-dasharray:none;stroke-dashoffset:1.20000005;stroke-opacity:0.97354497;paint-order:fill markers stroke"
       id="rect863"
       width="157.99405"
       height="121.33036"
       x="30.427082"
       y="102.34226" />
  </g>
  <g
     inkscape:groupmode="layer"
     id="layer7"
     inkscape:label="BackgroundWhite"
     style="display:inline">
    <rect
       style="display:inline;fill:#ffffff;fill-opacity:1;stroke:none;stroke-width:1.70000005;stroke-linecap:square;stroke-linejoin:miter;stroke-miterlimit:30;stroke-dasharray:none;stroke-dashoffset:1.20000005;stroke-opacity:0.97354497;paint-order:fill markers stroke"
       id="rect863-7"
       width="157.99405"
       height="121.33036"
       x="30.427082"
       y="102.34226" />
  </g>
  <g
     inkscape:groupmode="layer"
     id="layer6"
     inkscape:label="DragonWhiteShadowFill">
    <path
       style="display:inline;fill:none;fill-rule:evenodd;stroke:#fffffe;stroke-width:1.66499996;stroke-linecap:butt;stroke-linejoin:miter;stroke-miterlimit:4;stroke-dasharray:none;stroke-opacity:1"
       d="m 100.13602,203.45089 c -20.685615,-7.01834 -27.882882,-19.52212 -30.493907,-35.43527 -0.585891,-22.88409 10.550113,-37.69053 35.662077,-43.69466 10.92561,-0.0337 20.48797,1.43194 30.48375,8.77912"
       id="path857"
       inkscape:connector-curvature="0"
       sodipodi:nodetypes="cccc" />
  </g>
  <g
     inkscape:groupmode="layer"
     id="layer4"
     inkscape:label="Moon">
    <circle
       style="display:inline;fill:#f6f5d6;fill-opacity:1;stroke:none;stroke-width:0.99999994;stroke-linecap:round;stroke-linejoin:round;stroke-miterlimit:4;stroke-dasharray:none;stroke-dashoffset:1.20000005;stroke-opacity:1"
       id="path4537"
       cx="109.89657"
       cy="164.23589"
       r="40.348953" />
  </g>
  <g
     inkscape:groupmode="layer"
     id="layer3"
     inkscape:label="DragonWhiteShadow"
     style="display:inline">
    <path
       style="display:inline;fill:none;fill-opacity:1;fill-rule:evenodd;stroke:#ffffef;stroke-width:1.70000005;stroke-linecap:square;stroke-linejoin:miter;stroke-miterlimit:30;stroke-dasharray:none;stroke-opacity:1"
       d="m 100.32975,106.28554 c 19.06467,6.43863 23.73599,4.24489 41.29963,14.85628 -4.49765,-4.89122 -6.90143,-9.02355 -8.48727,-12.70469 5.69074,6.0656 12.26439,10.07608 17.71781,15.15194 1.50065,1.39675 3.57971,3.81979 5.14568,5.67303 3.74643,4.4337 8.18921,8.52744 10.69672,9.01795 -1.89776,1.43316 -5.82635,3.56613 -6.52849,4.70039 -7.03265,-4.48793 -6.73007,-4.81674 -10.49526,-8.65195 0.62072,2.9343 7.68089,7.02524 9.87462,9.26042 0.20127,0.97057 -3.79217,2.26915 -5.69326,3.47266 5.3e-4,-1.10252 -0.74883,-2.32645 -1.56332,-3.0393 -5.19572,-4.54736 -11.40184,-11.13338 -18.11506,-9.36304 l 1.5119,-2.74033 c -25.17381,-19.45487 -67.336365,-3.96304 -66.948036,31.34265 0.388329,35.30569 28.851755,42.59581 44.618516,42.63983 11.05596,0.0309 26.66447,-5.30636 38.85159,-11.46242 5.51772,-2.78716 20.0253,-4.54497 29.35844,7.25163 -12.33172,-9.60381 -26.34194,-5.56984 -31.41537,-0.0882 1.72718,0.62302 2.66223,0.32624 5.17276,1.47601 -9.10055,1.06887 -10.04013,3.30777 -23.56747,6.12357 2.79661,1.18166 3.7363,2.59543 5.21174,3.94223 -13.31693,-3.15174 -14.09846,1.31408 -32.87414,-1.40317 4.01666,4.17296 3.80661,4.03039 5.27858,7.01583 -11.497554,-9.68939 -11.01918,-3.04519 -33.074611,-17.03845 0.08416,4.40859 -1.310637,10.52473 -1.310637,10.52473 -3.200164,-14.42646 -10.281604,-19.4275 -13.790092,-33.91081 -2.061984,3.41704 -5.124777,5.83328 -7.88445,8.55263 6.324227,-14.11812 3.085956,-25.21243 7.349911,-37.81864 -3.987995,1.08304 -7.984496,2.99682 -12.160762,3.74177 13.757797,-9.85755 14.158873,-20.20299 25.46217,-28.33335 -5.241707,-1.63818 -9.541707,-2.14135 -13.301408,-4.27353 17.971108,1.33635 22.506651,-9.02984 45.915009,-9.23029 z"
       id="path4510-6"
       inkscape:connector-curvature="0"
       sodipodi:nodetypes="ccccccccscccczssccccccccccccccccc"
       inkscape:export-xdpi="200"
       inkscape:export-ydpi="200" />
  </g>
  <g
     inkscape:label="Dragon"
     inkscape:groupmode="layer"
     id="layer1"
     style="display:inline">
    <path
       style="fill:#000000;fill-opacity:1;fill-rule:evenodd;stroke:#000000;stroke-width:0.26499999;stroke-linecap:butt;stroke-linejoin:miter;stroke-miterlimit:4;stroke-dasharray:none;stroke-opacity:1"
       d="m 100.32975,106.28554 c 19.06467,6.43863 23.73599,4.24489 41.29963,14.85628 -4.49765,-4.89122 -6.90143,-9.02355 -8.48727,-12.70469 5.69074,6.0656 12.26439,10.07608 17.71781,15.15194 1.50065,1.39675 3.57971,3.81979 5.14568,5.67303 3.74643,4.4337 8.18921,8.52744 10.69672,9.01795 -1.89776,1.43316 -5.82635,3.56613 -6.52849,4.70039 -7.03265,-4.48793 -6.73007,-4.81674 -10.49526,-8.65195 0.62072,2.9343 7.68089,7.02524 9.87462,9.26042 0.20127,0.97057 -3.79217,2.26915 -5.69326,3.47266 5.7e-4,-1.10252 -0.74883,-2.32645 -1.56332,-3.0393 -5.19572,-4.54736 -11.40184,-11.13338 -18.11506,-9.36304 l 1.5119,-2.74033 c -25.17381,-19.45487 -67.336363,-3.96304 -66.948035,31.34265 0.388329,35.30569 28.851754,42.59581 44.618515,42.63983 11.05596,0.0309 26.66447,-5.30636 38.85159,-11.46242 5.51772,-2.78716 20.0253,-4.54497 29.35844,7.25163 -12.33172,-9.60381 -26.34194,-5.56984 -31.41537,-0.0882 1.72718,0.62302 2.66223,0.32624 5.17276,1.47601 -9.10055,1.06887 -10.04013,3.30777 -23.56747,6.12356 2.79661,1.18166 3.7363,2.59543 5.21174,3.94223 -13.31693,-3.15174 -14.09846,1.31408 -32.87414,-1.40316 4.01666,4.17296 3.80661,4.03039 5.27858,7.01582 -11.497553,-9.68938 -11.019178,-3.04519 -33.07461,-17.03844 0.08416,4.40859 -1.310637,10.52473 -1.310637,10.52473 -3.200163,-14.42646 -10.281604,-19.4275 -13.790092,-33.91081 -2.061983,3.41704 -5.124777,5.83328 -7.88445,8.55263 6.324227,-14.11812 3.085956,-25.21243 7.349912,-37.81864 -3.987996,1.08304 -7.984497,2.99682 -12.160763,3.74177 13.757797,-9.85755 14.158874,-20.20299 25.46217,-28.33335 -5.241707,-1.63818 -9.541706,-2.14135 -13.301408,-4.27353 17.971108,1.33635 22.506652,-9.02984 45.915008,-9.23029 z"
       id="path4510"
       inkscape:connector-curvature="0"
       sodipodi:nodetypes="ccccccccscccczssccccccccccccccccc"
       inkscape:export-xdpi="200"
       inkscape:export-ydpi="200" />
    <path
       style="fill:#ffffff;fill-opacity:1;fill-rule:evenodd;stroke:#ffffff;stroke-width:0.26499999;stroke-linecap:square;stroke-linejoin:miter;stroke-miterlimit:33.79999924;stroke-dasharray:none;stroke-opacity:1"
       d="m 145.95313,122.76828 c 0.94536,1.98774 3.48828,3.46723 4.41939,4.08126 -1.66969,-1.88668 -3.39481,-3.56454 -4.41939,-4.08126 z"
       id="path4543"
       inkscape:connector-curvature="0"
       sodipodi:nodetypes="ccc" />
  </g>
  <g
     inkscape:groupmode="layer"
     id="layer2"
     inkscape:label="HiddenSketch"
     style="display:none">
    <path
       style="display:inline;fill:none;fill-rule:evenodd;stroke:#000000;stroke-width:0.26458332px;stroke-linecap:butt;stroke-linejoin:miter;stroke-opacity:1"
       d="m 58.775298,157.14881 c 0,-0.063 0,-0.12599 0,-0.18899 0,-0.063 -0.02817,-0.13259 0,-0.18899 0.03984,-0.0797 0.149146,-0.10929 0.188986,-0.18899 0.02817,-0.0563 -0.02817,-0.13269 0,-0.18899 0.03984,-0.0797 0.149149,-0.10928 0.188989,-0.18898 0.02817,-0.0564 -0.04454,-0.14449 0,-0.18899 0.04455,-0.0446 0.144447,0.0445 0.188987,0 0.04454,-0.0446 -0.01527,-0.12789 0,-0.18899 0.04832,-0.19326 0.131749,-0.37615 0.188989,-0.56696 0.131784,-0.43928 0.216945,-0.8935 0.377976,-1.32292 0.03128,-0.0834 0.149149,-0.10929 0.188989,-0.18899 0.278077,-0.55615 -0.437806,0.24882 0.188987,-0.37797 0.02817,-0.0563 -0.02817,-0.13269 0,-0.18899 0.03984,-0.0797 0.149149,-0.10929 0.188989,-0.18899 0.02817,-0.0564 -0.02817,-0.13259 0,-0.18899 0.03984,-0.0797 0.149147,-0.10929 0.188987,-0.18899 0.02817,-0.0563 -0.02817,-0.13269 0,-0.18899 0.167658,-0.33527 0.21032,-0.0427 0.377978,-0.37797 0.02817,-0.0564 -0.02817,-0.13269 0,-0.18899 0.435906,-0.87181 -0.05793,0.49384 0.377976,-0.37798 0.02817,-0.0563 -0.02817,-0.13268 0,-0.18898 0.03984,-0.0797 0.149147,-0.10929 0.188987,-0.18899 0.05635,-0.11269 -0.05635,-0.26529 0,-0.37798 0.07968,-0.15937 0.321635,-0.20894 0.377975,-0.37797 0.03984,-0.11953 0,-0.25199 0,-0.37798 0,-0.063 -0.02817,-0.13259 0,-0.18899 0.03984,-0.0797 0.14915,-0.10929 0.18899,-0.18899 0.05635,-0.11269 -0.03984,-0.25845 0,-0.37797 0.456305,-1.36892 -0.05449,0.29796 0.377975,-0.56697 0.05635,-0.11269 -0.03984,-0.25845 0,-0.37797 0.114417,-0.34325 0.161745,-0.35074 0.377976,-0.56697 0.063,-0.063 0.149149,-0.10929 0.188989,-0.18899 0.02817,-0.0563 -0.02817,-0.13268 0,-0.18898 0.03984,-0.0797 0.149147,-0.10929 0.188987,-0.18899 0.05635,-0.11269 -0.05634,-0.26529 0,-0.37798 0.07968,-0.15937 0.298298,-0.2186 0.377978,-0.37797 0.02817,-0.0563 -0.01992,-0.12919 0,-0.18899 0.456306,-1.36892 -0.05449,0.29796 0.377976,-0.56697 0.02817,-0.0563 0,-0.12598 0,-0.18898 0.063,-0.126 0.125987,-0.25199 0.188987,-0.37798 0.09884,-0.14825 0.279146,-0.22972 0.377976,-0.37798 0.07814,-0.1172 0.110849,-0.26077 0.188989,-0.37797 0.04942,-0.0741 0.160819,-0.10449 0.188989,-0.18899 0.03984,-0.11953 -0.06989,-0.27315 0,-0.37798 0.07814,-0.11719 0.278376,-0.0894 0.377976,-0.18899 0.04454,-0.0445 -0.02817,-0.13268 0,-0.18898 0.03984,-0.0797 0.125996,-0.12599 0.188986,-0.18899 0,-0.063 -0.02817,-0.13269 0,-0.18899 0.113393,-0.22679 0.453573,-0.34018 0.566965,-0.56696 0.02817,-0.0563 -0.04454,-0.14449 0,-0.18899 0.09961,-0.0996 0.278376,-0.0894 0.377976,-0.18899 0.0996,-0.0996 0.11085,-0.26077 0.18899,-0.37798 0.04942,-0.0741 0.139566,-0.11488 0.188986,-0.18898 0.07814,-0.11721 0.104469,-0.26529 0.188989,-0.37798 0.106908,-0.14254 0.251984,-0.25198 0.377976,-0.37798 0.125992,-0.12599 0.235432,-0.27106 0.377976,-0.37797 0.112691,-0.0845 0.278376,-0.0894 0.377976,-0.18899 0.09961,-0.0996 0.08939,-0.27838 0.188989,-0.37798 0.0996,-0.0996 0.278366,-0.0894 0.377976,-0.18899 0.09961,-0.0996 0.08938,-0.27837 0.188989,-0.37797 0.0996,-0.0996 0.278376,-0.0894 0.377976,-0.18899 0.04454,-0.0445 -0.02817,-0.13259 0,-0.18899 0.03984,-0.0797 0.149146,-0.10928 0.188986,-0.18898 0.02817,-0.0564 -0.04454,-0.14449 0,-0.18899 0.0996,-0.0996 0.278366,-0.0894 0.377976,-0.18899 0.04454,-0.0445 -0.04454,-0.14449 0,-0.18899 0.04454,-0.0445 0.132649,0.0282 0.188989,0 0.100936,-0.0505 0.467465,-0.46746 0.566965,-0.56696 0.503968,-0.50397 1.007936,-1.00794 1.511904,-1.51191 0.443211,-0.44321 -0.133633,0.0445 0.566965,-0.18899 0.01897,-0.006 0.723031,-0.70655 0.755951,-0.75595 0.07814,-0.1172 0.11085,-0.26077 0.18899,-0.37797 0.145375,-0.21807 0.421589,-0.34891 0.566965,-0.56697 0.07814,-0.1172 0.110846,-0.26077 0.188986,-0.37798 0.05185,-0.0778 0.326136,-0.30017 0.377976,-0.37797 0.07814,-0.11721 0.110849,-0.26077 0.188989,-0.37798 0.0534,-0.0801 0.488775,-0.52786 0.566965,-0.56696 0.05634,-0.0282 0.132637,0.0282 0.188987,0 0.226785,-0.11339 0.34018,-0.45357 0.566965,-0.56697 0.05635,-0.0282 0.144446,0.0446 0.188986,0 0.04455,-0.0445 -0.04454,-0.14449 0,-0.18899 0.04455,-0.0445 0.13264,0.0282 0.18899,0 0.269586,-0.13479 0.108392,-0.24318 0.377976,-0.37797 0.112691,-0.0564 0.265287,0.0563 0.377975,0 0.07968,-0.0398 0.1093,-0.14919 0.18899,-0.18899 0.05751,-0.0288 0.481855,0 0.566965,0 0.06299,0 0.144446,-0.0445 0.188986,0 0.04454,0.0445 0.02817,0.13259 0,0.18899 -0.03984,0.0797 -0.125996,0.12599 -0.188986,0.18899 -0.063,0.063 -0.10447,0.16078 -0.18899,0.18898 -0.119525,0.0399 -0.251984,0 -0.377975,0 -0.063,0 -0.12923,-0.0199 -0.18899,0 -0.133633,0.0445 -0.24434,0.14449 -0.377975,0.18899 -0.119526,0.0398 -0.251984,0 -0.377976,0 -0.08511,0 -0.509445,-0.0288 -0.566965,0 -0.07968,0.0398 -0.125987,0.12599 -0.188987,0.18899 -0.063,0 -0.132639,-0.0282 -0.188989,0 -0.07969,0.0398 -0.109297,0.14919 -0.188987,0.18899 -0.05634,0.0282 -0.125989,0 -0.188989,0 -0.125992,0 -0.255746,-0.0306 -0.377976,0 -0.136657,0.0342 -0.244342,0.14449 -0.377976,0.18899 -0.119528,0.0398 -0.251983,0 -0.377975,0 -0.314982,0 -0.629963,0 -0.944941,0 -0.125992,0 -0.265287,-0.0564 -0.377976,0 -0.05635,0.0282 0.04454,0.14448 0,0.18898 -1.83e-4,1.8e-4 -0.566171,-2.6e-4 -0.566965,0 -0.08452,0.0282 -0.104469,0.16079 -0.188989,0.18899 -0.119526,0.0398 -0.258448,-0.0398 -0.377976,0 -0.08452,0.0282 -0.109297,0.14919 -0.188987,0.18899 -0.112691,0.0564 -0.265287,-0.0563 -0.377978,0 -0.07968,0.0398 -0.109307,0.14919 -0.188987,0.18899 -0.05634,0.0282 -0.132639,-0.0282 -0.188989,0 -0.07968,0.0398 -0.104467,0.16079 -0.188987,0.18899 -0.147751,0.0493 -1.029927,-0.052 -1.13393,0 -0.07968,0.0398 -0.104466,0.16079 -0.188986,0.18899 -0.17009,0.0567 -0.396875,-0.0567 -0.566965,0 -0.133636,0.0445 -0.24434,0.14448 -0.377976,0.18898 -0.05976,0.0199 -0.132639,-0.0282 -0.188989,0 -0.07968,0.0399 -0.104467,0.16079 -0.188987,0.18899 -0.119528,0.0398 -0.255746,-0.0306 -0.377976,0 -0.13666,0.0342 -0.244342,0.14449 -0.377978,0.18899 -0.05976,0.0199 -0.127867,-0.0153 -0.188987,0 -0.193262,0.0483 -0.371623,0.14989 -0.566965,0.18899 -0.123544,0.0247 -0.255746,-0.0306 -0.377976,0 -0.136657,0.0342 -0.24434,0.14449 -0.377975,0.18899 -0.05976,0.0199 -0.12599,0 -0.18899,0 -0.125991,0 -0.255746,0.0306 -0.377975,0 -0.136658,-0.0342 -0.241319,-0.15479 -0.377976,-0.18899 -0.183346,-0.0458 -0.387676,0.0598 -0.566965,0 -0.651483,-0.21719 -0.139994,-0.18899 -0.566963,-0.18899 -0.063,0 -0.132639,-0.0282 -0.188989,0 -0.07968,0.0398 -0.109309,0.14919 -0.188989,0.18899 -0.05634,0.0282 -0.144437,-0.0445 -0.188987,0 -0.04454,0.0445 0.04455,0.14449 0,0.18899 -0.0086,0.009 -0.85583,0 -0.94494,0 -0.063,0 -0.14444,-0.0445 -0.18899,0 -0.314975,0.31498 0.692957,0.18899 -0.377975,0.18899 -0.063,0 0.188989,0.063 0.188989,0 0,-0.25199 -0.440973,0.31497 -0.188989,-0.18899 0.03984,-0.0797 0.149149,-0.10929 0.188989,-0.18899 0.02817,-0.0564 -0.04455,-0.14449 0,-0.18899 0.04454,-0.0445 0.132646,0.0282 0.188986,0 0.07968,-0.0398 0.1093,-0.14919 0.18899,-0.18899 0.05635,-0.0282 0.144449,0.0446 0.188989,0 0.04454,-0.0445 -0.04454,-0.14449 0,-0.18899 0.04454,-0.0445 0.144446,0.0445 0.188986,0 0.04455,-0.0445 -0.04454,-0.14448 0,-0.18898 0.25198,-0.25199 0.18899,0.31498 0.18899,-0.18899 0.08909,-0.0891 0.265284,0.0563 0.377975,0 0.07969,-0.0398 0.109307,-0.14919 0.188987,-0.18899 0.05635,-0.0282 0.144449,0.0445 0.188989,0 0.04454,-0.0446 -0.04454,-0.14439 0,-0.18899 0.04454,-0.0445 0.132639,0.0282 0.188989,0 0.07968,-0.0398 0.109307,-0.14919 0.188987,-0.18899 0.05635,-0.0282 0.144449,0.0445 0.188989,0 0.04454,-0.0445 -0.04454,-0.14449 0,-0.18899 0.03863,-0.0386 0.492033,0.0375 0.566963,0 0.07968,-0.0398 0.109299,-0.14918 0.188989,-0.18898 0.112691,-0.0564 0.288886,0.0891 0.377976,0 0.04454,-0.0445 -0.04455,-0.14449 0,-0.18899 0.08909,-0.0891 0.288885,0.0891 0.377975,0 0.04455,-0.0446 -0.04454,-0.14449 0,-0.18899 0.04548,-0.0455 0.710475,0.0455 0.755955,0 0.04454,-0.0445 -0.04455,-0.14439 0,-0.18899 0.04454,-0.0445 0.144446,0.0446 0.188986,0 0.04455,-0.0445 -0.02817,-0.13269 0,-0.18899 0.03984,-0.0797 0.14915,-0.10928 0.18899,-0.18898 0.02817,-0.0563 -0.04455,-0.14449 0,-0.18899 0.04454,-0.0446 0.144446,0.0445 0.188986,0 0.08909,-0.0891 -0.08909,-0.28888 0,-0.37798 0.391016,-0.39102 -0.01529,0.59754 0.377976,-0.18898 0.278079,-0.55616 -0.437806,0.24881 0.188989,-0.37798 0.02817,-0.0564 -0.04454,-0.14449 0,-0.18899 0.04454,-0.0445 0.144449,0.0445 0.188989,0 0.04454,-0.0445 -0.04454,-0.14439 0,-0.18899 0.09961,-0.0996 0.278376,-0.0894 0.377976,-0.18899 0.04454,-0.0445 -0.04454,-0.14448 0,-0.18898 0.391016,-0.39103 -0.01529,0.59753 0.377976,-0.18899 0.02817,-0.0564 -0.04454,-0.14449 0,-0.18899 0.04454,-0.0446 0.132647,0.0282 0.188987,0 0.07968,-0.0398 0.109299,-0.14919 0.188989,-0.18899 0.05634,-0.0282 0.144449,0.0446 0.188989,0 0.04454,-0.0445 -0.04454,-0.14449 0,-0.18899 0.0996,-0.0996 0.260771,-0.11089 0.377976,-0.18899 0.148254,-0.0988 0.229722,-0.27917 0.377976,-0.37797 0.117205,-0.0781 0.26077,-0.11089 0.377975,-0.18899 0.07413,-0.0494 0.10931,-0.14919 0.18899,-0.18899 0.112688,-0.0563 0.288885,0.0891 0.377975,0 0.391023,-0.39107 -0.597535,0.0153 0.188987,-0.37797 0.556157,-0.27809 -0.248817,0.4378 0.377976,-0.18899 0.05635,-0.0282 0.144449,0.0445 0.188989,0 0.04454,-0.0446 -0.04454,-0.14439 0,-0.18899 0.0996,-0.0996 0.260771,-0.11089 0.377976,-0.18899 0.07413,-0.0494 0.109309,-0.14918 0.188989,-0.18898 0.05635,-0.0282 0.132637,0.0282 0.188987,0 0.07968,-0.0398 0.109309,-0.14919 0.188989,-0.18899 0.05635,-0.0282 0.132647,0.0282 0.188987,0 0.07968,-0.0398 0.109299,-0.14919 0.188989,-0.18899 0.05634,-0.0282 0.132639,0.0282 0.188989,0 0.159366,-0.0797 0.218607,-0.29828 0.377976,-0.37798 0.05634,-0.0282 0.144446,0.0445 0.188986,0 0.04455,-0.0445 -0.04454,-0.14439 0,-0.18899 0.04455,-0.0445 0.13264,0.0282 0.18899,0 0.07968,-0.0398 0.109306,-0.14918 0.188986,-0.18898 0.05635,-0.0282 0.144449,0.0445 0.188989,0 0.04455,-0.0446 -0.04454,-0.14449 0,-0.18899 0.04455,-0.0446 0.13264,0.0282 0.18899,0 0.07968,-0.0398 0.109306,-0.14919 0.188986,-0.18899 0.05635,-0.0282 0.132649,0.0282 0.188989,0 0.15937,-0.0797 0.218607,-0.29828 0.377976,-0.37798 0.05635,-0.0282 0.144447,0.0446 0.188987,0 0.04454,-0.0445 -0.04454,-0.14439 0,-0.18899 0.04454,-0.0445 0.132639,0.0282 0.188989,0 0.07968,-0.0398 0.109309,-0.14918 0.188989,-0.18898 0.05634,-0.0282 0.144447,0.0445 0.188987,0 0.04454,-0.0446 -0.04454,-0.14449 0,-0.18899 0.04454,-0.0446 0.132639,0.0282 0.188989,0 0.07968,-0.0398 0.109307,-0.14919 0.188987,-0.18899 0.05635,-0.0282 0.132639,0.0282 0.188989,0 0.07968,-0.0398 0.109306,-0.14919 0.188986,-0.18899 0.05635,-0.0282 0.13264,0.0282 0.18899,0 0.07968,-0.0398 0.109309,-0.14909 0.188989,-0.18899 0.05634,-0.0282 0.132637,0.0282 0.188987,0 0.07968,-0.0398 0.109309,-0.14918 0.188989,-0.18898 0.05634,-0.0282 0.132636,0.0282 0.188986,0 0.07968,-0.0399 0.1093,-0.14919 0.18899,-0.18899 0.202189,-0.1011 0.175786,0.10109 0.377975,0 0.159369,-0.0797 0.218607,-0.29828 0.377976,-0.37798 0.05635,-0.0282 0.132649,0.0282 0.188989,0 0.07969,-0.0398 0.104467,-0.16078 0.188987,-0.18898 0.119528,-0.0398 0.251984,0 0.377976,0 0.063,0 0.132639,0.0282 0.188989,0 0.159369,-0.0797 0.218607,-0.29828 0.377976,-0.37798 0.05634,-0.0282 0.129229,0.0199 0.188989,0 0.133633,-0.0446 0.24434,-0.14439 0.377976,-0.18899 0.05976,-0.0199 0.132646,0.0282 0.188986,0 0.07968,-0.0398 0.1093,-0.14919 0.18899,-0.18899 0.151191,-0.0756 0.415774,0.0756 0.566965,0 0.07968,-0.0398 0.109306,-0.14909 0.188986,-0.18899 0.151191,-0.0756 0.415774,0.0756 0.566965,0 0.07968,-0.0398 0.10256,-0.16738 0.18899,-0.18898 0.183343,-0.0458 0.381645,0.0371 0.566962,0 0.138128,-0.0276 0.251984,-0.12599 0.377976,-0.18899 0.063,-0.063 0.104469,-0.16079 0.188989,-0.18899 0.09182,-0.0306 1.129969,0 1.322917,0 0.125992,0 0.25845,0.0398 0.377975,0 0.133636,-0.0445 0.244343,-0.14439 0.377976,-0.18899 0.05976,-0.0199 0.129229,0.0199 0.188989,0 0.755952,-0.25198 -0.03821,-0.18134 0.944941,-0.37798 0.123545,-0.0247 0.255747,0.0306 0.377976,0 0.136657,-0.0342 0.24434,-0.14448 0.377976,-0.18898 0.200821,-0.0669 0.55513,0.0669 0.755952,0 0.133635,-0.0446 0.244342,-0.14449 0.377975,-0.18899 0.119528,-0.0398 0.265287,0.0563 0.377979,0 0.07968,-0.0398 0.109306,-0.14919 0.188986,-0.18899 0.119227,-0.0596 0.825715,0.0596 0.944941,0 0.07968,-0.0398 0.114859,-0.13959 0.188989,-0.18899 0.117206,-0.0781 0.251984,-0.12599 0.377976,-0.18899 0.125992,-0.063 0.24434,-0.14448 0.377976,-0.18898 0.05976,-0.0199 0.125987,0 0.188987,0 0.125994,0 0.253698,0.0207 0.377978,0 0.256204,-0.0427 0.501256,-0.13809 0.755952,-0.18899 0.185317,-0.0371 0.377975,0 0.566965,0 0.09882,0 0.706261,0.0248 0.755951,0 0.07969,-0.0398 0.109307,-0.14919 0.188987,-0.18899 0.05635,-0.0282 0.132639,0.0282 0.188989,0 0.07968,-0.0398 0.109309,-0.14909 0.188989,-0.18899 0.05634,-0.0282 0.125987,0 0.188987,0 0.063,0 0.125989,0 0.188989,0 0.314979,0 0.62996,0 0.944941,0 0.063,0 0.129227,0.0199 0.188987,0 0.133635,-0.0445 0.241318,-0.15478 0.377975,-0.18898 0.171329,-0.0428 0.725401,0 0.944941,0 0.063,0 0.125989,0 0.188989,0 0.063,0 0.132637,0.0282 0.188987,0 0.07968,-0.0398 0.109309,-0.14919 0.188989,-0.18899 0.05635,-0.0282 0.125987,0 0.188987,0 0.063,0 0.125989,0 0.188989,0 0.314981,0 0.62996,0 0.944941,0 0.125992,0 0.25845,0.0398 0.377976,0 0.133635,-0.0446 0.244342,-0.14449 0.377976,-0.18899 0.05976,-0.0199 0.125989,0 0.188989,0 0.188986,0 0.383616,0.0458 0.566966,0 0.0864,-0.0216 0.10449,-0.16079 0.18899,-0.18899 0.14774,-0.0493 1.02992,0.052 1.13392,0 0.0797,-0.0398 0.10929,-0.14919 0.18899,-0.18899 0.11269,-0.0563 0.26529,0.0563 0.37798,0 0.0797,-0.0398 0.10929,-0.14909 0.18899,-0.18899 0.0575,-0.0287 0.62545,0 0.75595,0 0.50397,0 1.00793,0 1.5119,0 1.19693,0 2.39385,0 3.59078,0 0.063,0 -0.12599,0 -0.18899,0 -0.50397,0 0.063,0.063 -0.18899,-0.18898 -0.0445,-0.0446 -0.12919,0.0199 -0.18899,0 -1.36892,-0.45628 0.29796,0.0545 -0.56696,-0.37798 -0.11269,-0.0563 -0.26529,0.0564 -0.37798,0 -0.0797,-0.0398 -0.10929,-0.14919 -0.18899,-0.18899 -0.11269,-0.0563 -0.26528,0.0563 -0.37797,0 -0.40438,-0.20219 0.0264,-0.17579 -0.37798,-0.37798 -0.0563,-0.0282 -0.12919,0.0199 -0.18899,0 -0.13811,-0.046 -0.48046,-0.20499 -0.56696,-0.37797 -0.0282,-0.0564 0.0446,-0.14449 0,-0.18899 -0.0891,-0.0891 -0.26529,0.0563 -0.37798,0 -0.18597,-0.093 -0.56998,-0.66295 -0.75595,-0.75595 -0.0563,-0.0282 -0.13259,0.0282 -0.18899,0 -0.22678,-0.11339 -0.34018,-0.45357 -0.56696,-0.56696 -0.26068,-0.13039 -0.16905,0.22887 -0.37798,-0.18899 -0.0282,-0.0564 0.0445,-0.14449 0,-0.18899 -0.0891,-0.0891 -0.28887,0.0891 -0.37797,0 -0.0446,-0.0446 0.0445,-0.14439 0,-0.18899 -0.0446,-0.0445 -0.13269,0.0282 -0.18899,0 -0.22679,-0.11339 -0.34018,-0.45357 -0.56697,-0.56696 -0.11269,-0.0563 -0.28887,0.0891 -0.37797,0 -0.0446,-0.0446 0.0445,-0.14449 0,-0.18899 -0.0446,-0.0446 -0.13269,0.0282 -0.18899,0 -0.0797,-0.0398 -0.12599,-0.12599 -0.18899,-0.18899 -0.063,0 -0.13259,0.0282 -0.18899,0 -0.15936,-0.0797 -0.2186,-0.29828 -0.37797,-0.37798 -0.0564,-0.0282 -0.14449,0.0446 -0.18899,0 -0.0446,-0.0445 0.0445,-0.14439 0,-0.18899 -0.0446,-0.0445 -0.18899,-0.063 -0.18899,0 0,0.063 0.12599,0 0.18899,0 0.063,0 0.12599,0 0.18899,0 0.44097,0 0.88194,0 1.32291,0 0.44098,0 0.88195,0 1.32292,0 0.12599,0 0.25199,0 0.37798,0 0.063,0 0.13268,-0.0282 0.18898,0 0.0797,0.0399 0.10929,0.14919 0.18899,0.18899 0.0575,0.0288 0.48187,0 0.56697,0 0.44317,0 -0.0891,-0.0445 0.37797,0.18899 0.11476,0.0574 1.01917,-0.0574 1.13393,0 0.0797,0.0398 0.10929,0.14919 0.18899,0.18899 0.0563,0.0282 0.12599,0 0.18899,0 0.12798,0 1.23681,-0.0287 1.32291,0 0.0845,0.0282 0.10929,0.14919 0.18899,0.18899 0.15119,0.0756 0.41578,-0.0756 0.56697,0 0.0797,0.0398 0.10449,0.16079 0.18899,0.18899 0.23471,0.0782 0.69645,-0.0621 0.94494,0 0.13665,0.0342 0.24131,0.15478 0.37797,0.18898 0.30558,0.0764 0.63425,-0.0518 0.94494,0 0.1965,0.0327 0.37798,0.12599 0.56697,0.18899 0.18898,0.063 0.382,0.11499 0.56696,0.18899 0.13079,0.0523 0.24132,0.15479 0.37798,0.18899 0.12223,0.0306 0.25574,-0.0306 0.37797,0 0.91262,0.22815 -0.009,0.0898 0.56697,0.37798 0.11269,0.0563 0.26528,-0.0563 0.37797,0 0.0797,0.0398 0.10929,0.14918 0.18899,0.18898 0.0563,0.0282 0.12599,0 0.18899,0 0.063,0 0.12599,0 0.18899,0 0.063,0 0.12599,0 0.18899,0 0.063,0 0.13268,-0.0282 0.18898,0 0.0797,0.0399 0.10929,0.14919 0.18899,0.18899 0.0841,0.0421 0.66955,-0.0288 0.75595,0 0.0845,0.0282 0.10929,0.14919 0.18899,0.18899 0.12026,0.0601 0.78155,-0.0545 0.94494,0 0.13364,0.0445 0.24132,0.15479 0.37798,0.18899 0.32813,0.082 0.8058,-0.082 1.13393,0 0.13665,0.0342 0.24132,0.15478 0.37797,0.18898 0.12224,0.0306 0.25443,-0.0247 0.37798,0 0.19534,0.0391 0.37162,0.14989 0.56696,0.18899 0.36344,0.0727 0.77049,-0.0727 1.13393,0 0.38922,0.0778 0.60896,0.20999 0.94494,0.37798 0.126,0.063 0.24132,0.15479 0.37798,0.18899 0.29645,0.0741 0.64849,-0.0741 0.94494,0 0.13666,0.0342 0.24132,0.15478 0.37798,0.18898 0.14866,0.0372 0.93739,0 1.13393,0 0.12599,0 0.25574,-0.0305 0.37797,0 1.31892,0.32986 -1.23803,0.18899 1.32292,0.18899 0.0879,0.0147 0.10449,0.16079 0.18899,0.18899 0.12857,0.0429 0.84473,-0.0501 0.94494,0 0.0797,0.0398 0.10928,0.14919 0.18898,0.18899 0.12077,0.0604 0.60384,-0.0507 0.75596,0 0.13363,0.0446 0.24132,0.15479 0.37797,0.18899 0.18335,0.0458 0.37798,0 0.56697,0 0.37797,0 0.75595,0 1.13393,0 0.0449,0 0.71355,-0.0212 0.75595,0 0.0797,0.0398 0.10449,0.16079 0.18899,0.18899 0.17477,0.0583 1.00941,-0.0623 1.13392,0 0.0797,0.0398 0.10929,0.14918 0.18899,0.18898 0.0684,0.0342 0.81349,0 0.94494,0 0.063,0 0.14449,-0.0445 0.18899,0 0.0446,0.0446 -0.0445,0.14449 0,0.18899 0.0891,0.0891 0.26529,-0.0563 0.37798,0 0.0797,0.0398 0.10929,0.14919 0.18899,0.18899 0.0683,0.0342 0.81349,0 0.94494,0 0.063,0 0.14448,-0.0445 0.18898,0 0.0445,0.0446 -0.0445,0.14439 0,0.18899 0.0891,0.0891 0.26529,-0.0563 0.37798,0 0.0797,0.0398 0.10929,0.14919 0.18899,0.18899 0.0563,0.0282 0.13269,-0.0282 0.18899,0 0.0797,0.0398 0.10928,0.14919 0.18898,0.18899 0.0563,0.0282 0.14449,-0.0445 0.18899,0 0.0446,0.0445 -0.0563,0.16078 0,0.18898 0.11269,0.0564 0.25845,-0.0398 0.37798,0 0.16903,0.0564 0.21861,0.29828 0.37798,0.37798 0.11269,0.0563 0.26528,-0.0564 0.37797,0 0.0797,0.0398 0.10929,0.14909 0.18899,0.18899 0.0563,0.0282 0.12599,0 0.18899,0 0.12599,0 0.25845,-0.0399 0.37797,0 0.0845,0.0282 0.10929,0.14918 0.18899,0.18898 0.15119,0.0756 0.41578,-0.0756 0.56697,0 0.0797,0.0399 0.10928,0.14919 0.18898,0.18899 0.11476,0.0574 1.01918,-0.0574 1.13393,0 0.0797,0.0398 0.10929,0.14919 0.18899,0.18899 0.0564,0.0282 0.13259,-0.0282 0.18899,0 0.0797,0.0398 0.12599,0.12599 0.18899,0.18899 0.063,0 0.13259,-0.0282 0.18899,0 0.0797,0.0398 0.10928,0.14909 0.18898,0.18899 0.0564,0.0282 0.12599,0 0.18899,0 0.12599,0.063 0.25199,0.12598 0.37798,0.18898 0.0741,0.0494 0.0999,0.18899 0.18899,0.18899 0.063,0 0.0445,-0.14439 0,-0.18899 -0.0445,-0.0445 -0.14449,0.0446 -0.18899,0 -0.0945,-0.0945 0.0945,-0.47246 0,-0.56696 -0.0445,-0.0445 -0.14449,0.0445 -0.18899,0 -0.0445,-0.0445 0.0282,-0.13259 0,-0.18899 -0.0398,-0.0797 -0.12599,-0.12599 -0.18899,-0.18899 -0.063,-0.063 -0.10929,-0.14918 -0.18899,-0.18898 -0.0563,-0.0282 -0.14448,0.0445 -0.18898,0 -0.0891,-0.0891 0.0891,-0.28888 0,-0.37798 -0.0446,-0.0445 -0.14449,0.0446 -0.18899,0 -0.0445,-0.0445 0.0445,-0.14439 0,-0.18899 -0.0445,-0.0445 -0.14449,0.0446 -0.18899,0 -0.0446,-0.0445 0.0282,-0.13268 0,-0.18898 -0.11339,-0.22679 -0.45357,-0.34018 -0.56697,-0.56697 -0.0563,-0.11269 0.0891,-0.28888 0,-0.37798 -0.0445,-0.0445 -0.14448,0.0446 -0.18898,0 -0.0445,-0.0445 0.0282,-0.13268 0,-0.18898 -0.0399,-0.0797 -0.12599,-0.12599 -0.18899,-0.18899 -0.2057,-0.2057 -0.61508,-0.54465 -0.75595,-0.75596 -0.19599,-0.29327 0.32104,-0.12296 -0.18899,-0.37797 -0.0564,-0.0282 -0.14449,0.0445 -0.18899,0 -0.0445,-0.0446 0.0445,-0.14449 0,-0.18899 -0.0445,-0.0445 -0.14439,0.0445 -0.18899,0 -0.0445,-0.0445 0.0446,-0.14439 0,-0.18899 -0.0445,-0.0445 -0.14449,0.0446 -0.18899,0 -0.0445,-0.0445 0.0445,-0.14439 0,-0.18899 -0.0445,-0.0445 -0.14448,0.0446 -0.18898,0 -0.0891,-0.0891 0.0891,-0.28887 0,-0.37797 -0.39098,-0.39102 0.0153,0.59753 -0.37798,-0.18899 -0.0282,-0.0563 0.0445,-0.14439 0,-0.18899 -0.0445,-0.0445 -0.14439,0.0446 -0.18899,0 -0.0445,-0.0445 0.0282,-0.13268 0,-0.18898 -0.0797,-0.15937 -0.29827,-0.21861 -0.37797,-0.37798 -0.0282,-0.0563 0.0445,-0.14439 0,-0.18899 -0.0446,-0.0445 -0.14449,0.0446 -0.18899,0 -0.0445,-0.0445 0.0445,-0.14449 0,-0.18899 -0.0445,-0.0445 -0.14449,0.0445 -0.18899,0 -0.0446,-0.0445 0.0445,-0.14439 0,-0.18899 -0.0446,-0.0445 -0.14439,0.0446 -0.18899,0 -0.0445,-0.0445 0.0282,-0.13268 0,-0.18898 -0.11339,-0.22679 -0.45357,-0.34018 -0.56696,-0.56697 -0.0282,-0.0563 0.0445,-0.14439 0,-0.18899 -0.39098,-0.39102 0.0153,0.59754 -0.37798,-0.18899 -0.27809,-0.55615 0.43781,0.24882 -0.18899,-0.37797 -0.0563,-0.11269 0.0891,-0.28888 0,-0.37798 -0.0445,-0.0445 -0.14449,0.0446 -0.18899,0 -0.0445,-0.0445 0,-0.12599 0,-0.18899 -0.063,0 -0.14448,0.0446 -0.18898,0 -0.0891,-0.0891 0.0891,-0.28887 0,-0.37797 -0.0445,-0.0446 -0.12599,0 -0.18899,0 0,-0.063 0.0445,-0.14439 0,-0.18899 -0.0445,-0.0445 -0.14449,0.0446 -0.18899,0 -0.0996,-0.0996 -0.11089,-0.26077 -0.18899,-0.37797 -0.1889,-0.28336 -0.60485,-0.45375 -0.75595,-0.75596 -0.0563,-0.11269 0.0398,-0.25845 0,-0.37797 -0.0427,-0.12798 -0.49476,-0.4226 -0.56696,-0.56697 -0.0282,-0.0563 0.0282,-0.13269 0,-0.18899 -0.0246,-0.0492 -0.33673,-0.23024 -0.18899,-0.37797 0.0445,-0.0446 0.14439,-0.0446 0.18899,0 0.0445,0.0445 -0.0446,0.14448 0,0.18898 0.0891,0.0891 0.28887,-0.0891 0.37797,0 0.39102,0.39098 -0.59753,-0.0153 0.18899,0.37798 0.11269,0.0563 0.28888,-0.0891 0.37798,0 0.0445,0.0446 -0.0445,0.14449 0,0.18899 0.0445,0.0446 0.13268,-0.0282 0.18898,0 0.0797,0.0398 0.10929,0.14919 0.18899,0.18899 0.0564,0.0282 0.14449,-0.0446 0.18899,0 0.0445,0.0445 -0.0445,0.14439 0,0.18899 0.0445,0.0445 0.14449,-0.0446 0.18899,0 0.0445,0.0445 -0.0282,0.13268 0,0.18898 0.39327,0.78653 -0.013,-0.20203 0.37797,0.18899 0.0445,0.0445 -0.0445,0.14449 0,0.18899 0.0445,0.0446 0.14449,-0.0445 0.18899,0 0.0446,0.0446 -0.0445,0.14439 0,0.18899 0.0446,0.0445 0.13259,-0.0282 0.18899,0 0.18597,0.093 0.56998,0.66295 0.75595,0.75595 0.0564,0.0282 0.14449,-0.0445 0.18899,0 0.0446,0.0446 -0.0445,0.14439 0,0.18899 0.39098,0.39102 -0.0153,-0.59754 0.37798,0.18899 0.0282,0.0563 -0.0445,0.14448 0,0.18898 0.39097,0.39103 -0.0153,-0.59753 0.37797,0.18899 0.13029,0.26069 -0.22887,0.16905 0.18899,0.37798 0.0564,0.0282 0.12599,0 0.18899,0 0,0.063 -0.0445,0.14439 0,0.18899 0.0445,0.0445 0.14449,-0.0446 0.18899,0 0.25211,0.25211 -0.25211,0.12586 0,0.37797 0.0445,0.0446 0.14449,-0.0445 0.18899,0 0.0445,0.0446 -0.0445,0.14449 0,0.18899 0.0445,0.0446 0.13268,-0.0282 0.18898,0 0.15937,0.0797 0.21861,0.29828 0.37798,0.37798 0.0563,0.0282 0.14449,-0.0446 0.18899,0 0.0445,0.0445 -0.0445,0.14439 0,0.18899 0.0445,0.0445 0.13269,-0.0282 0.18899,0 0.15936,0.0797 0.20894,0.32167 0.37797,0.37797 0.11953,0.0398 0.26529,-0.0563 0.37798,0 0.0563,0.0282 -0.0446,0.14449 0,0.18899 0.0445,0.0446 0.13269,-0.0282 0.18899,0 0.15936,0.0797 0.21861,0.29828 0.37797,0.37798 0.0564,0.0282 0.14449,-0.0446 0.18899,0 0.0446,0.0445 -0.0445,0.14449 0,0.18899 0.0891,0.0891 0.28888,-0.0891 0.37798,0 0.0445,0.0445 -0.0445,0.14448 0,0.18898 0.0996,0.0996 0.24434,0.14449 0.37797,0.18899 0.0598,0.0199 0.14449,-0.0445 0.18899,0 0.0446,0.0446 -0.0445,0.14439 0,0.18899 0.0446,0.0445 0.13269,-0.0282 0.18899,0 0.0797,0.0398 0.12599,0.12599 0.18899,0.18899 0.063,0.063 0.14909,0.10928 0.18899,0.18898 0.0282,0.0564 -0.0445,0.14449 0,0.18899 0.0445,0.0446 0.13658,-0.0349 0.18898,0 0.14826,0.0988 0.25199,0.25199 0.37798,0.37798 0.063,0.063 0.10929,0.14909 0.18899,0.18899 0.26068,0.13038 0.16904,-0.22888 0.37797,0.18898 0.0282,0.0564 -0.0445,0.14449 0,0.18899 0.0445,0.0446 0.14449,-0.0445 0.18899,0 0.0446,0.0446 -0.0445,0.14449 0,0.18899 0.0446,0.0446 0.14439,-0.0445 0.18899,0 0.0891,0.0891 -0.0891,0.28888 0,0.37798 0.0445,0.0445 0.14439,-0.0446 0.18899,0 0.0891,0.0891 -0.0564,0.26528 0,0.37797 0.0398,0.0797 0.12599,0.12599 0.18899,0.18899 0.063,0.063 0.10928,0.14919 0.18898,0.18899 0.0563,0.0282 0.14449,-0.0445 0.18899,0 0.0446,0.0446 -0.0445,0.14439 0,0.18899 0.12606,0.12605 0.25192,-0.12606 0.37798,0 0.0445,0.0445 -0.0446,0.14439 0,0.18899 0.0445,0.0445 0.14449,-0.0446 0.18899,0 0.0445,0.0445 -0.0282,0.13269 0,0.18899 0.0398,0.0797 0.12599,0.12598 0.18899,0.18898 0.063,0.063 0.10928,0.14919 0.18898,0.18899 0.0564,0.0282 0.14449,-0.0445 0.18899,0 0.0446,0.0446 -0.0445,0.14439 0,0.18899 0.0446,0.0445 0.13269,-0.0282 0.18899,0 0.0797,0.0398 0.10929,0.14909 0.18899,0.18899 0.0563,0.0282 0.13269,-0.0282 0.18899,0 0.0797,0.0398 0.10928,0.14918 0.18898,0.18898 0.0564,0.0282 0.14449,-0.0445 0.18899,0 0.0446,0.0446 0,0.12599 0,0.18899 0.12599,0.063 0.25199,0.12599 0.37798,0.18899 0.11952,0.0398 0.26528,-0.0563 0.37797,0 0.0797,0.0398 0.10929,0.14919 0.18899,0.18899 0.0564,0.0282 0.14439,-0.0446 0.18899,0 0.0445,0.0445 -0.0446,0.14439 0,0.18899 0.0445,0.0445 0.14439,-0.0446 0.18899,0 0.0445,0.0445 -0.0446,0.14448 0,0.18898 0.0891,0.0891 0.26528,-0.0563 0.37797,0 0.15937,0.0797 0.21861,0.29828 0.37798,0.37798 0.0564,0.0282 0.14439,-0.0445 0.18899,0 0.0445,0.0446 -0.0446,0.14449 0,0.18899 0.0891,0.0891 0.28888,-0.0891 0.37798,0 0.0445,0.0445 -0.0446,0.14439 0,0.18899 0.0445,0.0445 0.14448,-0.0446 0.18898,0 0.0445,0.0445 -0.0445,0.14439 0,0.18899 0.0445,0.0445 0.13269,-0.0282 0.18899,0 0.0797,0.0398 0.12599,0.12598 0.18899,0.18898 0.063,0 0.13259,-0.0282 0.18899,0 0.15937,0.0797 0.2186,0.29828 0.37797,0.37798 0.0564,0.0282 0.14449,-0.0445 0.18899,0 0.0446,0.0446 -0.0445,0.14439 0,0.18899 0.0446,0.0445 0.13269,-0.0282 0.18899,0 0.0797,0.0398 0.10929,0.14919 0.18899,0.18899 0.0563,0.0282 0.14449,-0.0446 0.18899,0 0.0445,0.0445 -0.0445,0.14449 0,0.18899 0.0445,0.0445 0.13268,-0.0282 0.18898,0 0.78653,0.39327 -0.20203,-0.013 0.18899,0.37797 0.0446,0.0446 0.14439,-0.0445 0.18899,0 0.0445,0.0446 -0.0446,0.14439 0,0.18899 0.0445,0.0445 0.14439,-0.0446 0.18899,0 0.0445,0.0445 -0.0446,0.14439 0,0.18899 0.0445,0.0445 0.14449,-0.0446 0.18899,0 0.0445,0.0445 -0.0445,0.14448 0,0.18898 0.0445,0.0446 0.14448,-0.0445 0.18898,0 0.0445,0.0446 -0.0445,0.14449 0,0.18899 0.0445,0.0446 0.14449,-0.0445 0.18899,0 0.0446,0.0446 -0.0445,0.14449 0,0.18899 0.0446,0.0445 0.14449,-0.0445 0.18899,0 0.0446,0.0445 -0.0445,0.14439 0,0.18899 0.39098,0.39102 -0.0153,-0.59754 0.37798,0.18899 0.0282,0.0563 -0.0445,0.14448 0,0.18898 0.0445,0.0446 0.13259,-0.0282 0.18899,0 0.0797,0.0399 0.10928,0.14919 0.18898,0.18899 0.26069,0.13039 0.16905,-0.22887 0.37798,0.18899 0.0563,0.11269 -0.0891,0.28888 0,0.37798 0.0445,0.0445 0.14449,-0.0446 0.18899,0 0.0445,0.0445 -0.0445,0.14439 0,0.18899 0.0445,0.0445 0.14449,-0.0446 0.18899,0 0.0445,0.0445 -0.0445,0.14448 0,0.18898 0.0445,0.0446 0.14448,-0.0445 0.18898,0 0.12606,0.12606 -0.12605,0.25193 0,0.37798 0.0445,0.0446 0.14449,-0.0445 0.18899,0 0.0446,0.0446 -0.0445,0.14439 0,0.18899 0.0446,0.0445 0.14449,-0.0446 0.18899,0 0.0445,0.0445 -0.0282,0.13259 0,0.18899 0.0797,0.15937 0.29828,0.2186 0.37798,0.37797 0.0563,0.11269 -0.0891,0.28888 0,0.37798 0.0445,0.0445 0.14448,-0.0446 0.18898,0 0.0445,0.0445 -0.0282,0.13259 0,0.18899 0.0399,0.0797 0.14919,0.10928 0.18899,0.18898 0.0756,0.15119 -0.0756,0.41578 0,0.56697 0.0398,0.0797 0.14919,0.10929 0.18899,0.18899 0.0282,0.0563 -0.0446,0.14448 0,0.18898 0.0445,0.0445 0.14439,-0.0445 0.18899,0 0.0891,0.0891 -0.0564,0.26529 0,0.37798 0.0504,0.10085 0.32757,0.27713 0.37797,0.37798 0.0282,0.0563 -0.0282,0.13269 0,0.18899 0.20894,0.41786 0.1173,0.0586 0.37798,0.18898 0.78652,0.39328 -0.20203,-0.013 0.18899,0.37798 0.0445,0.0445 0.14449,-0.0445 0.18899,0 0.0891,0.0891 -0.0891,0.28888 0,0.37798 0.0445,0.0445 0.14439,-0.0445 0.18899,0 0.0891,0.0891 -0.0891,0.28887 0,0.37797 0.0445,0.0446 0.14448,-0.0445 0.18898,0 0.0445,0.0446 -0.0282,0.13269 0,0.18899 0.0797,0.15937 0.29828,0.21861 0.37798,0.37798 0.0282,0.0563 -0.0445,0.14448 0,0.18898 0.0891,0.0891 0.28888,-0.0891 0.37798,0 0.0891,0.0891 -0.0891,0.28888 0,0.37798 0.0445,0.0445 0.14448,-0.0445 0.18898,0 0.0445,0.0445 -0.0282,0.13259 0,0.18899 0.0399,0.0797 0.14919,0.10929 0.18899,0.18899 0.0282,0.0563 -0.0445,0.14448 0,0.18898 0.0945,0.0945 0.47247,-0.0945 0.56697,0 0.12621,0.12622 -0.12621,0.25177 0,0.37798 0.0445,0.0446 0.14448,-0.0445 0.18898,0 0.0445,0.0446 -0.0445,0.14439 0,0.18899 0.0891,0.0891 0.28888,-0.0891 0.37798,0 0.0445,0.0445 -0.0446,0.14449 0,0.18899 0.0445,0.0445 0.14439,-0.0445 0.18899,0 0.0445,0.0445 -0.0446,0.14449 0,0.18899 0.0445,0.0445 0.14449,-0.0445 0.18899,0 0.0445,0.0445 -0.0445,0.14448 0,0.18898 0.0445,0.0445 0.12598,0 0.18898,0 0.063,0.063 0.12599,0.12599 0.18899,0.18899 0.23359,0.23354 0.18899,0.0999 0.18899,0.37798 0.0446,0.0445 0.14439,-0.0445 0.18899,0 0.0445,0.0445 -0.0446,0.14449 0,0.18899 0.0445,0.0445 0.14449,-0.0445 0.18899,0 0.0445,0.0445 -0.0445,0.14439 0,0.18899 0.39097,0.39102 -0.0153,-0.59754 0.37797,0.18898 0.0564,0.11269 -0.0891,0.28888 0,0.37798 0.0445,0.0445 0.14449,-0.0446 0.18899,0 0.0446,0.0445 -0.0445,0.14449 0,0.18899 0.0446,0.0445 0.14449,-0.0445 0.18899,0 0.0445,0.0445 -0.0282,0.13268 0,0.18898 0.0398,0.0797 0.12599,0.12599 0.18899,0.18899 0.063,0.063 0.10929,0.14919 0.18899,0.18899 0.0563,0.0282 0.14448,-0.0445 0.18898,0 0.39103,0.39098 -0.59753,-0.0153 0.18899,0.37798 0.0564,0.0282 0.12599,0 0.18899,0 0,0.063 -0.0445,0.14448 0,0.18898 0.12605,0.12606 0.25192,-0.12605 0.37798,0 0.39102,0.39098 -0.59754,-0.0153 0.18898,0.37798 0.0749,0.0375 0.52837,-0.0386 0.56697,0 0.0891,0.0891 -0.0891,0.28888 0,0.37798 0.0891,0.0891 0.28887,-0.0891 0.37797,0 0.0445,0.0445 -0.0445,0.14449 0,0.18899 0.0445,0.0445 0.14449,-0.0445 0.18899,0 0.0446,0.0445 -0.0445,0.14448 0,0.18898 0.0446,0.0445 0.14449,-0.0445 0.18899,0 0.0446,0.0445 -0.0445,0.14449 0,0.18899 0.0446,0.0446 0.14439,-0.0445 0.18899,0 0.0445,0.0446 -0.0446,0.14449 0,0.18899 0.0445,0.0445 0.14449,-0.0445 0.18899,0 0.39102,0.39098 -0.59754,-0.0153 0.18899,0.37798 0.0563,0.0282 0.14448,-0.0445 0.18898,0 0.0445,0.0445 -0.0445,0.14439 0,0.18899 0.0445,0.0445 0.14449,-0.0446 0.18899,0 0.0446,0.0445 -0.0445,0.14448 0,0.18898 0.39098,0.39102 -0.0153,-0.59753 0.37798,0.18899 0.0282,0.0563 -0.0445,0.14439 0,0.18899 0.12621,0.12621 0.25176,-0.12621 0.37797,0 0.0445,0.0445 -0.0445,0.14449 0,0.18899 0.0445,0.0445 0.14449,-0.0445 0.18899,0 0.0446,0.0445 -0.0445,0.14448 0,0.18898 0.0891,0.0891 0.26529,-0.0563 0.37798,0 0.0797,0.0399 0.14909,0.10929 0.18899,0.18899 0.0282,0.0564 -0.063,0.18899 0,0.18899 0.063,0 0.063,-0.18899 0,-0.18899 -0.12599,0 0.0891,0.28888 0,0.37798 -0.0996,0.0996 -0.24435,0.14449 -0.37798,0.18899 -0.11953,0.0398 -0.28888,-0.0891 -0.37798,0 -0.0445,0.0445 0.0445,0.14448 0,0.18898 -0.0945,0.0945 -0.47246,-0.0945 -0.56696,0 -0.0445,0.0445 0.0445,0.14449 0,0.18899 -0.0455,0.0455 -0.71045,-0.0455 -0.75595,0 -0.0445,0.0445 0.0445,0.14449 0,0.18899 -0.0891,0.0891 -0.26529,-0.0563 -0.37798,0 -0.0797,0.0398 -0.10929,0.14919 -0.18899,0.18899 -0.11269,0.0563 -0.28887,-0.0891 -0.37797,0 -0.0445,0.0445 0.0445,0.14449 0,0.18899 -0.0945,0.0945 -0.47247,-0.0945 -0.56697,0 -0.0445,0.0445 0.0446,0.14449 0,0.18899 -0.0445,0.0445 -0.14449,-0.0445 -0.18899,0 -0.0445,0.0445 0.0445,0.14448 0,0.18898 -0.0945,0.0945 -0.47246,-0.0945 -0.56696,0 -0.0445,0.0445 0.0445,0.14449 0,0.18899 -0.0445,0.0446 -0.12599,0 -0.18899,0 -0.12599,0 -0.25198,0 -0.37797,0 -0.063,0 0.18898,0.063 0.18898,0 0,-0.063 -0.13268,0.0282 -0.18898,0 -0.0797,-0.0398 -0.12599,-0.25199 -0.18899,-0.18899 -0.063,0.063 0.18899,0.0999 0.18899,0.18899 0,0.063 -0.14449,0.0446 -0.18899,0 -0.25199,-0.25199 0.31498,-0.18899 -0.18899,-0.18899 -0.50397,0 0.063,-0.063 -0.18899,0.18899 -0.12621,0.12621 -0.25176,-0.12621 -0.37797,0 -0.0446,0.0446 0.0445,0.14449 0,0.18899 -0.0891,0.0891 -0.28888,-0.0891 -0.37798,0 -0.0446,0.0445 0.063,0.18899 0,0.18899 -0.14086,0 -0.23711,-0.18899 -0.37798,-0.18899 -0.0891,0 0.18899,0.0999 0.18899,0.18899 0,0.063 -0.14439,0.0445 -0.18899,0 -0.0445,-0.0445 0.0446,-0.14449 0,-0.18899 -0.0891,-0.0891 -0.28887,0.0891 -0.37797,0 -0.0445,-0.0445 0.0282,-0.13259 0,-0.18899 -0.39328,-0.78652 0.013,0.20204 -0.37798,-0.18899 -0.0446,-0.0445 0.0445,-0.14448 0,-0.18898 -0.0446,-0.0445 -0.14439,0.0445 -0.18899,0 -0.0445,-0.0445 0.0446,-0.14449 0,-0.18899 -0.0445,-0.0445 -0.14449,0.0445 -0.18899,0 -0.0445,-0.0445 0.0445,-0.14449 0,-0.18899 -0.0891,-0.0891 -0.26528,0.0563 -0.37797,0 -0.0797,-0.0398 -0.10929,-0.14919 -0.18899,-0.18899 -0.0563,-0.0282 -0.14439,0.0446 -0.18899,0 -0.0891,-0.0891 0.0891,-0.28888 0,-0.37798 -0.0445,-0.0445 -0.14449,0.0445 -0.18899,0 -0.0445,-0.0445 0.0445,-0.14448 0,-0.18898 -0.0445,-0.0445 -0.14448,0.0445 -0.18898,0 -0.39103,-0.39098 0.59753,0.0153 -0.18899,-0.37798 -0.0564,-0.0282 -0.14449,0.0445 -0.18899,0 -0.0445,-0.0445 0.0445,-0.14439 0,-0.18899 -0.0445,-0.0445 -0.13259,0.0282 -0.18899,0 -0.10084,-0.0504 -0.27713,-0.32757 -0.37797,-0.37797 -0.55616,-0.27809 0.24881,0.4378 -0.37798,-0.18899 -0.0564,-0.0282 -0.14439,0.0445 -0.18899,0 -0.0445,-0.0446 0.0446,-0.14449 0,-0.18899 -0.0891,-0.0891 -0.28888,0.0891 -0.37798,0 -0.0445,-0.0445 0.0445,-0.14439 0,-0.18899 -0.0445,-0.0445 -0.14448,0.0446 -0.18898,0 -0.0445,-0.0445 0.0445,-0.14448 0,-0.18898 -0.0996,-0.0996 -0.27838,-0.0894 -0.37798,-0.18899 -0.0446,-0.0445 0.0282,-0.13269 0,-0.18899 -0.0398,-0.0797 -0.12599,-0.12599 -0.18899,-0.18899 -0.063,-0.063 -0.10929,-0.14919 -0.18899,-0.18899 -0.0563,-0.0282 -0.13268,0.0282 -0.18898,0 -0.22679,-0.11339 -0.34018,-0.45357 -0.56697,-0.56696 -0.0563,-0.0282 -0.13259,0.0282 -0.18899,0 -0.0981,-0.049 -0.50826,-0.56697 -0.56696,-0.56697 -0.063,0 -0.0445,0.14449 0,0.18899 0.0445,0.0446 0.14449,-0.0445 0.18899,0 0.0445,0.0446 -0.0445,0.14439 0,0.18899 0.0445,0.0445 0.14449,-0.0446 0.18899,0 0.0445,0.0445 -0.0445,0.14449 0,0.18899 0.0445,0.0445 0.14448,-0.0445 0.18898,0 0.0445,0.0445 -0.0445,0.14449 0,0.18899 0.0445,0.0445 0.14449,-0.0445 0.18899,0 0.0446,0.0445 -0.0445,0.14448 0,0.18898 0.0446,0.0445 0.14449,-0.0445 0.18899,0 0.0445,0.0445 -0.0445,0.14449 0,0.18899 0.0445,0.0446 0.13259,-0.0282 0.18899,0 0.0797,0.0398 0.10929,0.14919 0.18899,0.18899 0.0563,0.0282 0.14448,-0.0445 0.18898,0 0.0891,0.0891 -0.0891,0.28888 0,0.37798 0.39098,0.39102 -0.0153,-0.59754 0.37798,0.18899 0.13029,0.26068 -0.22888,0.16904 0.18899,0.37797 0.0563,0.0282 0.14449,-0.0445 0.18899,0 0.0445,0.0445 -0.0282,0.13259 0,0.18899 0.11339,0.22679 0.45357,0.34018 0.56696,0.56696 0.0282,0.0564 -0.0445,0.14449 0,0.18899 0.0446,0.0445 0.14439,-0.0445 0.18899,0 0.0445,0.0445 -0.0446,0.14439 0,0.18899 0.0445,0.0445 0.14449,-0.0446 0.18899,0 0.0445,0.0445 -0.0282,0.13259 0,0.18899 0.11339,0.22678 0.45357,0.34018 0.56696,0.56696 0.0282,0.0564 -0.0445,0.14439 0,0.18899 0.0446,0.0445 0.14449,-0.0446 0.18899,0 0.0455,0.0455 -0.0455,0.71045 0,0.75595 0.0445,0.0446 0.14449,-0.0445 0.18899,0 0.0445,0.0446 -0.0445,0.14449 0,0.18899 0.0445,0.0445 0.14449,-0.0445 0.18899,0 0.0445,0.0445 -0.0282,0.13259 0,0.18899 0.0398,0.0797 0.14918,0.10929 0.18898,0.18899 0.0375,0.0749 -0.0386,0.52836 0,0.56696 0.0445,0.0445 0.14449,-0.0445 0.18899,0 0.0386,0.0386 -0.0375,0.49206 0,0.56696 0.0398,0.0797 0.18899,0.0999 0.18899,0.18899 0,0.063 -0.14439,-0.0445 -0.18899,0 -0.0945,0.0945 0.0945,0.47247 0,0.56697 -0.12621,0.12621 -0.25176,-0.12621 -0.37797,0 -0.0445,0.0445 0.0445,0.14448 0,0.18898 -0.0891,0.0891 -0.28888,-0.0891 -0.37798,0 -0.0445,0.0445 0.0445,0.14449 0,0.18899 -0.0891,0.0891 -0.28888,-0.0891 -0.37798,0 -0.0445,0.0445 0.0445,0.14449 0,0.18899 -0.0891,0.0891 -0.28887,-0.0891 -0.37797,0 -0.0445,0.0446 0.0445,0.14439 0,0.18899 -0.0445,0.0445 -0.13259,-0.0282 -0.18899,0 -0.0797,0.0398 -0.10929,0.14919 -0.18899,0.18899 -0.11269,0.0563 -0.26528,-0.0564 -0.37798,0 -0.0797,0.0398 -0.10928,0.14909 -0.18898,0.18899 -0.0563,0.0282 -0.14449,-0.0445 -0.18899,0 -0.0446,0.0445 0.0445,0.14448 0,0.18898 -0.0891,0.0891 -0.26529,-0.0563 -0.37798,0 -0.0797,0.0399 -0.10929,0.14919 -0.18899,0.18899 -0.0563,0.0282 -0.12598,0 -0.18898,0 -0.063,0 -0.12599,0 -0.18899,0 -0.18899,0 -0.37798,0 -0.56697,0 -0.063,0 0.18899,0.063 0.18899,0 0,-0.063 -0.12599,0 -0.18899,0 -0.063,0 -0.12598,0 -0.18898,0 -0.063,0 -0.13269,-0.0282 -0.18899,0 -0.0797,0.0398 -0.0999,0.18899 -0.18899,0.18899 -0.063,0 0.0445,-0.14439 0,-0.18899 -0.0445,-0.0445 -0.13259,0.0282 -0.18899,0 -0.0797,-0.0398 -0.10929,-0.14909 -0.18899,-0.18899 -0.0563,-0.0282 -0.14448,0.0445 -0.18898,0 -0.0891,-0.0891 0.0891,-0.28887 0,-0.37797 -0.0891,-0.0891 -0.28888,0.0891 -0.37798,0 -0.0446,-0.0445 0.0445,-0.14449 0,-0.18899 -0.0446,-0.0446 -0.14439,0.0445 -0.18899,0 -0.12605,-0.12606 0.12606,-0.25192 0,-0.37798 -0.0445,-0.0445 -0.14439,0.0445 -0.18899,0 -0.0945,-0.0945 0.0945,-0.47246 0,-0.56696 -0.0445,-0.0446 -0.14449,0.0445 -0.18899,0 -0.0445,-0.0446 0.0282,-0.13269 0,-0.18899 -0.0398,-0.0797 -0.14918,-0.10929 -0.18898,-0.18899 -0.0282,-0.0563 0.0282,-0.13269 0,-0.18899 -0.0797,-0.15936 -0.29828,-0.2186 -0.37798,-0.37797 -0.0282,-0.0564 0.0445,-0.14449 0,-0.18899 -0.0446,-0.0445 -0.14439,0.0445 -0.18899,0 -0.0445,-0.0445 0.0446,-0.14439 0,-0.18899 -0.0445,-0.0445 -0.14449,0.0446 -0.18899,0 -0.39102,-0.39097 0.59754,0.0153 -0.18898,-0.37797 -0.0563,-0.0282 -0.14449,0.0445 -0.18899,0 -0.0445,-0.0445 0.0445,-0.14449 0,-0.18899 -0.0445,-0.0445 -0.14449,0.0445 -0.18899,0 -0.0891,-0.0891 0.0891,-0.28888 0,-0.37798 -0.0445,-0.0445 -0.14439,0.0446 -0.18899,0 -0.39102,-0.39097 0.59754,0.0153 -0.18899,-0.37797 -0.0563,-0.0282 -0.14448,0.0445 -0.18898,0 -0.0891,-0.0891 0.0563,-0.26529 0,-0.37798 -0.0399,-0.0797 -0.14919,-0.10929 -0.18899,-0.18899 -0.0282,-0.0563 0.0445,-0.14449 0,-0.18899 -0.0445,-0.0445 -0.14449,0.0445 -0.18899,0 -0.0445,-0.0445 0.0445,-0.14449 0,-0.18899 -0.0445,-0.0445 -0.14439,0.0445 -0.18899,0 -0.0945,-0.0945 0.0945,-0.47246 0,-0.56696 -0.0996,-0.0996 -0.27837,-0.0894 -0.37797,-0.18899 -0.0945,-0.0945 0.0945,-0.47246 0,-0.56696 -0.0446,-0.0446 -0.14449,0.0445 -0.18899,0 -0.0445,-0.0446 0.0445,-0.14449 0,-0.18899 -0.0445,-0.0445 -0.14449,0.0445 -0.18899,0 -0.0945,-0.0945 0.0945,-0.47246 0,-0.56696 -0.0446,-0.0445 -0.14439,0.0445 -0.18899,0 -0.0445,-0.0445 0.0446,-0.14449 0,-0.18899 -0.0445,-0.0445 -0.14439,0.0445 -0.18899,0 -0.0945,-0.0945 0.0945,-0.47247 0,-0.56697 -0.0445,-0.0445 -0.14449,0.0445 -0.18899,0 -0.0445,-0.0445 0.0445,-0.14448 0,-0.18898 -0.0445,-0.0445 -0.14448,0.0445 -0.18898,0 -0.0891,-0.0891 0.0891,-0.28888 0,-0.37798 -0.0445,-0.0446 -0.14449,0.0445 -0.18899,0 -0.0446,-0.0446 0.0445,-0.14439 0,-0.18899 -0.0446,-0.0445 -0.14449,0.0446 -0.18899,0 -0.0945,-0.0945 0.0945,-0.47246 0,-0.56696 -0.0446,-0.0445 -0.13259,0.0282 -0.18899,0 -0.15937,-0.0797 -0.21861,-0.29828 -0.37797,-0.37798 -0.0563,-0.0282 -0.13269,0.0282 -0.18899,0 -0.22679,-0.11339 -0.34018,-0.45357 -0.56697,-0.56696 -0.0563,-0.0282 -0.13268,0.0282 -0.18898,0 -0.0797,-0.0399 -0.10929,-0.14919 -0.18899,-0.18899 -0.11269,-0.0564 -0.28888,0.0891 -0.37798,0 -0.0445,-0.0446 0.0446,-0.14449 0,-0.18899 -0.0891,-0.0891 -0.28887,0.0891 -0.37797,0 -0.0446,-0.0445 0.0445,-0.14439 0,-0.18899 -0.0891,-0.0891 -0.28888,0.0891 -0.37798,0 -0.0446,-0.0445 0.0445,-0.14448 0,-0.18898 -0.0891,-0.0891 -0.26529,0.0563 -0.37798,0 -0.0797,-0.0399 -0.10929,-0.14919 -0.18899,-0.18899 -0.0563,-0.0282 -0.13268,0.0282 -0.18898,0 -0.22679,-0.1134 -0.34018,-0.45358 -0.56697,-0.56697 -0.0563,-0.0282 -0.13259,0.0282 -0.18899,0 -0.0797,-0.0398 -0.12598,-0.12599 -0.18898,-0.18899 -0.063,-0.063 -0.14919,-0.10928 -0.18899,-0.18898 -0.0282,-0.0563 0.0282,-0.13269 0,-0.18899 -0.20893,-0.41787 -0.1173,-0.0587 -0.37798,-0.18899 -0.0797,-0.0398 -0.10929,-0.14919 -0.18899,-0.18899 -0.0683,-0.0342 -0.81349,0 -0.94494,0 -0.0988,0 -0.70625,-0.0248 -0.75595,0 -0.0797,0.0398 -0.10929,0.14919 -0.18899,0.18899 -0.0563,0.0282 -0.12599,0 -0.18899,0 -0.063,0 -0.13268,0.0282 -0.18898,0 -0.0797,-0.0398 -0.10929,-0.14919 -0.18899,-0.18899 -0.0497,-0.0248 -0.65715,0 -0.75595,0 -0.10096,0 -0.89084,-0.027 -0.94494,0 -0.0797,0.0398 -0.10929,0.14919 -0.18899,0.18899 -0.10253,0.0513 -0.70425,-0.0517 -0.75595,0 -0.0446,0.0445 0.0445,0.14449 0,0.18899 -0.0891,0.0891 -0.26529,-0.0564 -0.37798,0 -0.0797,0.0398 -0.10929,0.14909 -0.18899,0.18899 -0.11269,0.0563 -0.28888,-0.0891 -0.37798,0 -0.0445,0.0445 0.0282,0.13268 0,0.18898 -0.39327,0.78653 0.013,-0.20203 -0.37797,0.18899 -0.0446,0.0446 0.0445,0.14449 0,0.18899 -0.0446,0.0445 -0.14449,-0.0445 -0.18899,0 -0.0446,0.0445 0.0282,0.13259 0,0.18899 -0.39328,0.78652 0.013,-0.20204 -0.37798,0.18899 -0.0445,0.0445 0.0445,0.14439 0,0.18899 -0.0445,0.0445 -0.12598,0 -0.18898,0 -0.31498,0 -0.62996,0 -0.94494,0 0.0315,-0.15749 0.0945,-0.31186 0.0945,-0.47247 0,-0.0315 -0.0722,0.0223 -0.0945,0 -0.0223,-0.0223 0.0223,-0.0722 0,-0.0945 -0.0223,-0.0223 -0.0722,0.0223 -0.0945,0 -0.0223,-0.0223 0,-0.063 0,-0.0945 0,-0.0657 -0.0171,-0.4383 0,-0.47247 0.15165,-0.30329 0.0374,0.11429 0.18899,-0.18899 0.0141,-0.0282 -0.0223,-0.0722 0,-0.0945 0.0223,-0.0223 0.0722,0.0223 0.0945,0 0.0445,-0.0445 -0.0282,-0.13265 0,-0.18899 0.0199,-0.0399 0.0746,-0.0547 0.0945,-0.0945 0.0141,-0.0282 -0.0223,-0.0722 0,-0.0945 0.0223,-0.0223 0.0663,0.0141 0.0945,0 0.20894,-0.10447 0.0293,-0.0587 0.0945,-0.18899 0.19663,-0.39326 -0.007,0.10102 0.18899,-0.0945 0.0445,-0.0446 -0.0445,-0.14445 0,-0.18899 0.0223,-0.0223 0.0722,0.0223 0.0945,0 0.0445,-0.0445 -0.0445,-0.14444 0,-0.18899 0.0223,-0.0223 0.0945,-0.0315 0.0945,0 0,0.0315 -0.0722,0.0223 -0.0945,0 -0.003,-0.003 0,-0.26056 0,-0.28348 0,-0.063 0,-0.12599 0,-0.18899 0,-0.0315 -0.0315,-0.0945 0,-0.0945 0.0315,0 0,0.12599 0,0.0945 0,-0.063 0.0282,-0.13264 0,-0.18899 -0.0282,-0.0563 -0.14444,0.0445 -0.18899,0 -0.0223,-0.0223 0.0223,-0.0722 0,-0.0945 -0.0223,-0.0223 -0.063,0 -0.0945,0 -0.0315,0 -0.063,0 -0.0945,0 -0.22048,0 -0.44097,0 -0.66145,0 -0.0426,0 -0.25473,0.0144 -0.28349,0 -0.0398,-0.0199 -0.0522,-0.0804 -0.0945,-0.0945 -0.0598,-0.0199 -0.12923,0.0199 -0.18899,0 -0.0423,-0.0141 -0.0546,-0.0746 -0.0945,-0.0945 -0.0249,-0.0124 -0.32857,0 -0.37798,0 -0.28348,0 -0.56696,0 -0.85045,0 -0.62996,0 -1.25992,0 -1.88988,0 -0.15749,0 -0.31498,0 -0.47247,0 -0.12599,0 -0.25443,0.0247 -0.37797,0 -0.0437,-0.009 -0.0522,-0.0804 -0.0945,-0.0945 -0.11952,-0.0399 -0.25845,0.0398 -0.37797,0 -0.0423,-0.0141 -0.0547,-0.0746 -0.0945,-0.0945 -0.0282,-0.0141 -0.063,0 -0.0945,0 -0.0315,0 -0.063,0 -0.0945,0 -0.17988,0 -0.39381,0.0247 -0.56696,0 -1.22711,-0.30678 0.30303,0.0433 -0.66146,-0.0945 -0.12856,-0.0184 -0.24911,-0.0784 -0.37797,-0.0945 -0.12502,-0.0156 -0.25296,0.0156 -0.37798,0 -0.12887,-0.0161 -0.24911,-0.0784 -0.37798,-0.0945 -0.12502,-0.0156 -0.25198,0 -0.37797,0 -0.22049,0 -0.44097,0 -0.66146,0 -0.66146,0 -1.32292,0 -1.98438,0 -0.22048,0 -0.44097,0 -0.66145,0 -0.0945,0 -0.19181,0.0229 -0.28349,0 -0.0683,-0.0171 -0.11855,-0.0945 -0.18898,-0.0945 -0.17412,0 -0.13781,0.14305 -0.28349,0.0945 -0.0668,-0.0223 -0.12217,-0.0722 -0.18898,-0.0945 -0.0299,-0.01 -0.063,0 -0.0945,0 -0.063,0 -0.12599,0 -0.18899,0 -0.25198,0 -0.50396,0 -0.75595,0 -0.50397,0 -1.00794,0 -1.5119,0 -0.50397,0 -1.00794,0 -1.51191,0 -0.25198,0 -0.50397,0 -0.75595,0 -0.12599,0 -0.25443,-0.0247 -0.37798,0 -0.0977,0.0195 -0.18685,0.0703 -0.28348,0.0945 -0.0808,0.0202 -0.37802,0 -0.47247,0 -0.34648,0 -0.69296,0 -1.03943,0 -0.126,0 -0.25443,-0.0247 -0.37798,0 -0.0977,0.0195 -0.18685,0.0703 -0.28348,0.0945 -0.18899,0.0473 0,-0.0945 -0.28348,0 -0.0423,0.0141 -0.0522,0.0804 -0.0945,0.0945 -0.0432,0.0144 -0.33593,-0.021 -0.37797,0 -0.0399,0.0199 -0.0522,0.0804 -0.0945,0.0945 -0.0893,0.0298 -0.44859,-0.0197 -0.56696,0 -0.24,-0.0807 -0.3737,0.14067 -0.56697,0.18899 -0.0611,0.0153 -0.12599,0 -0.18899,0 -0.063,0 -0.12599,0 -0.18898,0 -0.0315,0 -0.0646,-0.01 -0.0945,0 -0.0668,0.0223 -0.12217,0.0722 -0.18899,0.0945 -0.0881,0.0294 -0.38513,-0.0291 -0.47247,0 -0.0423,0.0141 -0.0522,0.0804 -0.0945,0.0945 -0.0598,0.0199 -0.12599,0 -0.18899,0 -0.0315,0 -0.0663,-0.0141 -0.0945,0 -0.0398,0.0199 -0.0522,0.0804 -0.0945,0.0945 -0.0432,0.0144 -0.33592,-0.021 -0.37797,0 -0.0398,0.0199 -0.063,0.063 -0.0945,0.0945 -0.063,0 -0.12922,-0.0199 -0.18898,0 -0.0423,0.0141 -0.0522,0.0804 -0.0945,0.0945 -0.0848,0.0598 -0.19384,-0.0299 -0.28348,0 -0.53537,0.26769 0.14086,-0.0352 -0.37798,0.0945 -0.0683,0.0171 -0.12066,0.0774 -0.18899,0.0945 -0.0611,0.0153 -0.12922,-0.0199 -0.18898,0 -0.0423,0.0141 -0.0574,0.0698 -0.0945,0.0945 -0.4127,0.27514 0.0311,-0.0419 -0.37797,0.0945 -0.0423,0.0141 -0.0522,0.0804 -0.0945,0.0945 -0.0958,0.0319 -0.44652,-0.0241 -0.56696,0 -0.0977,0.0195 -0.18581,0.075 -0.28348,0.0945 -0.0618,0.0124 -0.12788,-0.0153 -0.18899,0 -0.0683,0.0171 -0.12217,0.0722 -0.18899,0.0945 -0.0896,0.0299 -0.19384,-0.0299 -0.28348,0 -0.0423,0.0141 -0.0546,0.0746 -0.0945,0.0945 -0.042,0.021 -0.33475,-0.0144 -0.37797,0 -0.0423,0.0141 -0.0546,0.0746 -0.0945,0.0945 -0.0558,0.0279 -0.21848,-0.0217 -0.28348,0 -0.0668,0.0223 -0.12066,0.0774 -0.18899,0.0945 -0.0611,0.0153 -0.12922,-0.0199 -0.18898,0 -0.0423,0.0141 -0.0513,0.0837 -0.0945,0.0945 -0.0917,0.0229 -0.19262,-0.0259 -0.28348,0 -0.13544,0.0387 -0.24434,0.14445 -0.37798,0.18899 -0.0598,0.0199 -0.12721,-0.0123 -0.18899,0 -0.0977,0.0195 -0.18581,0.075 -0.28348,0.0945 -0.0618,0.0123 -0.12721,-0.0124 -0.18899,0 -0.19461,0.0389 -0.30448,0.10499 -0.47247,0.18899 -0.063,0.0315 -0.11992,0.0807 -0.18898,0.0945 -0.0927,0.0185 -0.19181,-0.0229 -0.28349,0 -0.0864,0.0216 -0.10447,0.16081 -0.18898,0.18899 -0.0598,0.0199 -0.12923,-0.0199 -0.18899,0 -0.0423,0.0141 -0.0531,0.078 -0.0945,0.0945 -0.12058,0.0482 -0.25739,0.0463 -0.37797,0.0945 -0.0414,0.0165 -0.0522,0.0804 -0.0945,0.0945 -0.0598,0.0199 -0.12787,-0.0153 -0.18898,0 -0.0683,0.0171 -0.12066,0.0774 -0.18899,0.0945 -0.0611,0.0153 -0.12722,-0.0123 -0.18899,0 -0.67311,0.13463 0.16052,0.0716 -0.66146,0.18899 -0.0935,0.0134 -0.18899,0 -0.28348,0 -0.12599,0.0315 -0.24987,0.0731 -0.377977,0.0945 -0.06214,0.0104 -0.127873,-0.0153 -0.188989,0 -0.06833,0.0171 -0.125992,0.063 -0.188988,0.0945 -0.09449,0.0315 -0.185811,0.075 -0.283482,0.0945 -0.06177,0.0124 -0.129225,-0.0199 -0.188988,0 -0.04226,0.0141 -0.05223,0.0804 -0.09449,0.0945 -0.05976,0.0199 -0.125992,0 -0.188988,0 -0.0315,0 -0.06632,-0.0141 -0.09449,0 -0.03984,0.0199 -0.05465,0.0746 -0.09449,0.0945 -0.02817,0.0141 -0.06632,-0.0141 -0.09449,0 -0.03984,0.0199 -0.05224,0.0804 -0.09449,0.0945 -0.119527,0.0398 -0.254431,-0.0247 -0.377976,0 -0.194611,0.0389 -0.304481,0.10499 -0.472471,0.18898 -0.063,0.0315 -0.120659,0.0774 -0.188988,0.0945 -0.06112,0.0153 -0.127873,-0.0153 -0.188988,0 -0.258493,0.0646 -0.152061,0.13287 -0.377976,0.28348 -0.02621,0.0175 -0.06461,-0.01 -0.09449,0 -0.535374,0.26769 0.140863,-0.0352 -0.377976,0.0945 -0.187655,0.0469 -0.37931,0.23657 -0.566965,0.28349 -0.673099,0.16827 0.478733,-0.28599 -0.47247,0.0945 -0.193137,0.0773 -0.380837,0.19042 -0.566964,0.28348 -0.063,0.0315 -0.122171,0.0722 -0.188988,0.0945 -0.02988,0.01 -0.06461,-0.01 -0.09449,0 -0.06682,0.0223 -0.12066,0.0774 -0.188988,0.0945 -0.06112,0.0153 -0.127873,-0.0153 -0.188988,0 -0.171029,-0.057 -0.175743,0.15308 -0.283483,0.18899 -0.05976,0.0199 -0.127873,-0.0153 -0.188988,0 -0.152553,0.0381 -0.187427,0.0929 -0.283482,0.18899 -0.0315,0.0315 -0.05223,0.0804 -0.09449,0.0945 -0.05976,0.0199 -0.132643,-0.0282 -0.188988,0 -0.02817,0.0141 0.02817,0.0804 0,0.0945 -0.05635,0.0282 -0.129225,-0.0199 -0.188988,0 -0.04226,0.0141 -0.05465,0.0746 -0.09449,0.0945 -0.02817,0.0141 -0.06632,-0.0141 -0.09449,0 -0.07968,0.0398 -0.10447,0.16081 -0.188988,0.18899 -0.05976,0.0199 -0.129225,-0.0199 -0.188988,0 -0.08452,0.0282 -0.114861,0.13957 -0.188988,0.18899 -0.0586,0.0391 -0.130386,0.0554 -0.188989,0.0945 -0.116647,0.0778 -0.07234,0.11122 -0.188988,0.18899 -0.0586,0.0391 -0.125992,0.063 -0.188988,0.0945 -0.063,0.0315 -0.12217,0.0722 -0.188988,0.0945 -0.02988,0.01 -0.06632,-0.0141 -0.09449,0 -0.201687,0.10084 0.0127,0.0881 -0.188988,0.18898 -0.02817,0.0141 -0.06461,-0.01 -0.09449,0 -0.06682,0.0223 -0.125992,0.063 -0.188988,0.0945 -0.063,0.0315 -0.130385,0.0554 -0.188988,0.0945 -0.111191,0.0741 -0.176575,0.2033 -0.283482,0.28348 -0.05635,0.0423 -0.132643,0.0522 -0.188988,0.0945 -0.07127,0.0534 -0.117717,0.13553 -0.188989,0.18899 -0.05634,0.0422 -0.128593,0.0582 -0.188988,0.0945 -0.208982,-0.009 -0.246936,0.19612 -0.377976,0.28348 -0.0586,0.0391 -0.125992,0.063 -0.188988,0.0945 -0.063,0.0315 -0.130385,0.0554 -0.188988,0.0945 -0.03706,0.0247 -0.05743,0.0698 -0.09449,0.0945 -0.174451,0.1163 -0.392514,0.16719 -0.566964,0.28349 -0.03706,0.0247 -0.05743,0.0698 -0.09449,0.0945 -0.117206,0.0781 -0.265286,0.10447 -0.377977,0.18899 -0.408714,0.40871 0.02503,0.0148 -0.377976,0.28348 -0.139045,0.0927 -0.23893,0.28528 -0.377976,0.37798 -0.0586,0.0391 -0.130385,0.0554 -0.188988,0.0945 -0.03706,0.0247 -0.05743,0.0698 -0.09449,0.0945 -0.0586,0.0391 -0.130385,0.0554 -0.188988,0.0945 -0.03706,0.0247 -0.05743,0.0698 -0.09449,0.0945 -0.117206,0.0781 -0.265286,0.10447 -0.377976,0.18899 -0.07127,0.0535 -0.112595,0.14315 -0.188989,0.18899 -0.08541,0.0513 -0.198071,0.0433 -0.283482,0.0945 -0.07639,0.0458 -0.117716,0.13554 -0.188988,0.18899 -0.05634,0.0423 -0.125992,0.063 -0.188988,0.0945 -0.063,0.0315 -0.123594,0.0683 -0.188988,0.0945 -0.09248,0.037 -0.198071,0.0433 -0.283482,0.0945 -0.07639,0.0458 -0.109304,0.14915 -0.188988,0.18899 -0.299407,0.14971 -0.08794,-0.19554 -0.377976,0.0945 -0.0498,0.0498 -0.04469,0.13918 -0.09449,0.18898 -0.0498,0.0498 -0.130386,0.0554 -0.188989,0.0945 -0.03706,0.0247 -0.05743,0.0698 -0.09449,0.0945 -0.0586,0.0391 -0.130385,0.0554 -0.188988,0.0945 -0.03706,0.0247 -0.05743,0.0698 -0.09449,0.0945 -0.0586,0.0391 -0.130385,0.0554 -0.188988,0.0945 -0.03706,0.0247 -0.05465,0.0746 -0.09449,0.0945 -0.02817,0.0141 -0.06632,-0.0141 -0.09449,0 -0.03984,0.0199 -0.05743,0.0698 -0.09449,0.0945 -0.0586,0.0391 -0.130385,0.0554 -0.188988,0.0945 -0.174971,0.11664 -0.01402,0.0723 -0.188988,0.18898 -0.117206,0.0781 -0.260771,0.11086 -0.377976,0.18899 -0.141741,0.0945 -0.09449,0.18899 -0.283482,0.28348 -0.05635,0.0282 -0.127873,-0.0153 -0.188989,0 -0.06833,0.0171 -0.125992,0.063 -0.188988,0.0945 -0.063,0.0315 -0.130385,0.0554 -0.188988,0.0945 -0.03706,0.0247 -0.05743,0.0698 -0.09449,0.0945 -0.0586,0.0391 -0.130385,0.0554 -0.188988,0.0945 -0.03706,0.0247 -0.05743,0.0698 -0.09449,0.0945 -0.0586,0.0391 -0.130385,0.0554 -0.188988,0.0945 -0.03706,0.0247 -0.05743,0.0698 -0.09449,0.0945 -0.0586,0.0391 -0.130385,0.0554 -0.188988,0.0945 -0.03706,0.0247 -0.05743,0.0698 -0.09449,0.0945 -0.0586,0.0391 -0.130386,0.0554 -0.188988,0.0945 -0.06208,0.0414 -0.232339,0.26644 -0.283482,0.28349 -0.05976,0.0199 -0.136573,-0.035 -0.188989,0 -0.0586,0.0391 -0.04469,0.13918 -0.09449,0.18899 -0.02227,0.0223 -0.06461,-0.01 -0.09449,0 -0.06682,0.0223 -0.132642,0.0522 -0.188988,0.0945 -0.07127,0.0534 -0.114861,0.13957 -0.188988,0.18899 -0.02621,0.0175 -0.07222,-0.0223 -0.09449,0 -0.02227,0.0223 0.02227,0.0722 0,0.0945 -0.02227,0.0223 -0.06632,-0.0141 -0.09449,0 -0.07968,0.0398 -0.109304,0.14915 -0.188988,0.18899 -0.02817,0.0141 -0.07222,-0.0223 -0.09449,0 -0.02227,0.0223 0.02817,0.0804 0,0.0945 -0.05634,0.0282 -0.132643,-0.0282 -0.188988,0 -0.02817,0.0141 0.01409,0.0663 0,0.0945 -0.01992,0.0398 -0.05743,0.0698 -0.09449,0.0945 -0.0586,0.0391 -0.130386,0.0554 -0.188988,0.0945 -0.08602,0.0573 -0.199729,0.2416 -0.283482,0.28348 -0.02817,0.0141 -0.07222,-0.0223 -0.0945,0 -0.02227,0.0223 0.02227,0.0722 0,0.0945 -0.0498,0.0498 -0.130385,0.0554 -0.188988,0.0945 -0.03706,0.0247 -0.05465,0.0746 -0.09449,0.0945 -0.02817,0.0141 -0.07222,-0.0223 -0.09449,0 -0.229507,0.22951 0.0281,0.13876 -0.188988,0.28348 -0.0586,0.0391 -0.130385,0.0554 -0.188988,0.0945 -0.03706,0.0247 -0.063,0.063 -0.09449,0.0945 -0.09449,0.0945 -0.188988,0.18899 -0.283482,0.28348 -0.0315,0.0315 -0.05465,0.0746 -0.09449,0.0945 -0.02817,0.0141 -0.06632,-0.0141 -0.09449,0 -0.208932,0.10446 -0.02932,0.0586 -0.09449,0.18898 -0.01992,0.0399 -0.063,0.063 -0.09449,0.0945 -0.0315,0.0315 -0.05465,0.0746 -0.09449,0.0945 -0.02817,0.0141 -0.07222,-0.0223 -0.09449,0 -0.02227,0.0223 0.02227,0.0722 0,0.0945 -0.0498,0.0498 -0.14992,0.0359 -0.188988,0.0945 -0.03494,0.0524 0.02817,0.13264 0,0.18899 -0.01409,0.0282 -0.07222,-0.0223 -0.0945,0 -0.0498,0.0498 -0.05542,0.13038 -0.09449,0.18899 -0.02471,0.0371 -0.07457,0.0546 -0.09449,0.0945 -0.01409,0.0282 0.01409,0.0663 0,0.0945 -0.0567,0.11339 -0.226785,0.17008 -0.283482,0.28348 -0.01409,0.0282 0.01409,0.0663 0,0.0945 -0.01992,0.0398 -0.063,0.063 -0.09449,0.0945 -0.108115,0.10811 -0.13178,0.11185 -0.188988,0.28348 -0.01,0.0299 0.01409,0.0663 0,0.0945 -0.01992,0.0398 -0.06978,0.0574 -0.09449,0.0945 -0.03907,0.0586 -0.05543,0.13038 -0.09449,0.18898 -0.02471,0.0371 -0.08041,0.0522 -0.09449,0.0945 -0.01992,0.0598 0.01992,0.12922 0,0.18899 -0.02817,0.0845 -0.13957,0.11486 -0.188988,0.18898 -0.03907,0.0586 -0.05543,0.13039 -0.09449,0.18899 -0.02471,0.0371 -0.07457,0.0547 -0.09449,0.0945 -0.01409,0.0282 0.01,0.0646 0,0.0945 -0.05721,0.17162 -0.08087,0.17537 -0.188988,0.28348 -0.0315,0.0315 -0.07457,0.0546 -0.09449,0.0945 -0.01409,0.0282 0.01409,0.0663 0,0.0945 -0.101347,0.20269 -0.08764,-0.0137 -0.188989,0.18899 -0.02817,0.0563 0.02817,0.13264 0,0.18899 -0.01992,0.0398 -0.07457,0.0546 -0.09449,0.0945 -0.01409,0.0282 0.01409,0.0663 0,0.0945 -0.03984,0.0797 -0.149145,0.10931 -0.188988,0.18899 -0.02817,0.0564 0.02817,0.13265 0,0.18899 -0.03609,0.0722 -0.262153,0.2195 -0.283482,0.28348 -0.01992,0.0598 0.01992,0.12923 0,0.18899 -0.01409,0.0423 -0.06978,0.0574 -0.09449,0.0945 -0.03907,0.0586 -0.05542,0.13038 -0.09449,0.18898 -0.02471,0.0371 -0.08041,0.0522 -0.09449,0.0945 -0.01992,0.0598 0.01992,0.12922 0,0.18899 -0.01409,0.0423 -0.07457,0.0547 -0.09449,0.0945 -0.01409,0.0282 0.01409,0.0663 0,0.0945 -0.03984,0.0797 -0.149146,0.10931 -0.188988,0.18899 -0.02817,0.0564 0.01992,0.12923 0,0.18899 -0.02227,0.0668 -0.07222,0.12217 -0.09449,0.18899 -0.01,0.0299 0.01409,0.0663 0,0.0945 -0.223109,0.44622 0.04969,-0.57675 -0.188988,0.37798 -0.0076,0.0306 0,0.063 0,0.0945 0,0.063 0.01528,0.12787 0,0.18899 -0.01708,0.0683 -0.07222,0.12217 -0.09449,0.18899 -0.01992,0.0598 0.02817,0.13264 0,0.18899 -0.01992,0.0398 -0.07457,0.0547 -0.09449,0.0945 -0.139039,0.27808 0.218903,-0.12441 -0.09449,0.18899"
       id="path4504"
       inkscape:connector-curvature="0" />
    <path
       style="display:inline;fill:none;fill-rule:evenodd;stroke:#000000;stroke-width:0.26458332px;stroke-linecap:butt;stroke-linejoin:miter;stroke-opacity:1"
       d="m 146.46577,123.13095 c 0.13869,-0.1175 0.42706,0.40251 0.56697,0.47247 0.0282,0.0141 0.0663,-0.0141 0.0945,0 0.0797,0.0398 0.10931,0.14915 0.18899,0.18899 0.0282,0.0141 0.0663,-0.0141 0.0945,0 0.0838,0.0419 0.19746,0.22613 0.28349,0.28348 0.0586,0.0391 0.13918,0.0447 0.18898,0.0945 0.0498,0.0498 0.0554,0.13038 0.0945,0.18898 0.0247,0.0371 0.063,0.063 0.0945,0.0945 0.063,0.063 0.11486,0.13957 0.18899,0.18898 0.0586,0.0391 0.13918,0.0447 0.18899,0.0945 0.0223,0.0223 -0.0223,0.0722 0,0.0945 0.0223,0.0223 0.0663,-0.0141 0.0945,0 0.0398,0.0199 0.0547,0.0746 0.0945,0.0945 0.0282,0.0141 0.0722,-0.0223 0.0945,0 0.0223,0.0223 -0.0223,0.0722 0,0.0945 0.0223,0.0223 0.0663,-0.0141 0.0945,0 0.10085,0.0504 0.0881,0.13857 0.18899,0.18899 0.0564,0.0282 0.14444,-0.0445 0.18899,0 0.0223,0.0223 -0.0223,0.0722 0,0.0945 0.0223,0.0223 0.0663,-0.0141 0.0945,0 0.0399,0.0199 0.063,0.063 0.0945,0.0945 0.063,0 0.12922,-0.0199 0.18898,0 0.0423,0.0141 0.0547,0.0746 0.0945,0.0945 0.0282,0.0141 0.0663,-0.0141 0.0945,0 0.0797,0.0398 0.10931,0.14915 0.18899,0.18899 0.0282,0.0141 0.063,0 0.0945,0 0.0315,0.0315 0.0547,0.0746 0.0945,0.0945 0.0282,0.0141 0.0663,-0.0141 0.0945,0 0.0797,0.0399 0.10931,0.14915 0.18899,0.18899 0.0282,0.0141 0.0722,-0.0223 0.0945,0 0.0223,0.0223 -0.0223,0.0722 0,0.0945 0.0445,0.0445 0.14444,-0.0446 0.18898,0 0.0446,0.0445 -0.0445,0.14444 0,0.18898 0.0223,0.0223 0.0663,-0.0141 0.0945,0 0.32122,0.16061 -0.19439,0.0945 0.0945,0.0945 -0.0112,-0.043 -0.0223,-0.086 -0.0335,-0.12903 -0.0111,0 -0.0255,0.008 -0.0334,0 -0.0157,-0.0157 0.0157,-0.0511 0,-0.0668 -0.0691,-0.0691 0.003,0.10563 -0.0668,-0.0334 -0.007,-0.0132 0.007,-0.0934 0,-0.10023 -0.008,-0.008 -0.0255,0.008 -0.0334,0 -0.0691,-0.0691 0.10563,0.003 -0.0334,-0.0668 -0.0461,-0.023 -0.0299,0.0405 -0.0668,-0.0334 -0.005,-0.01 0.008,-0.0255 0,-0.0334 -0.0691,-0.0691 0.003,0.10563 -0.0668,-0.0334 -0.005,-0.01 0.005,-0.0234 0,-0.0334 -0.02,-0.0401 -0.0802,-0.0601 -0.10023,-0.10023 -0.005,-0.01 0.008,-0.0255 0,-0.0334 -0.008,-0.008 -0.0255,0.008 -0.0334,0 -0.008,-0.008 0.008,-0.0255 0,-0.0334 -0.008,-0.008 -0.0234,0.005 -0.0334,0 -0.0141,-0.007 -0.0223,-0.0223 -0.0334,-0.0334 -0.0111,-0.0111 -0.0264,-0.0193 -0.0334,-0.0334 -0.005,-0.01 0.008,-0.0255 0,-0.0334 -0.008,-0.008 -0.0234,0.005 -0.0334,0 -0.0401,-0.02 -0.0601,-0.0802 -0.10023,-0.10023 -0.01,-0.005 -0.0234,0.005 -0.0334,0 -0.0282,-0.0141 -0.0386,-0.0527 -0.0668,-0.0668 -0.01,-0.005 -0.0235,0.005 -0.0334,0 -0.0401,-0.02 -0.0601,-0.0802 -0.10023,-0.10022 -0.01,-0.005 -0.0234,0.005 -0.0334,0 -0.0141,-0.007 -0.0193,-0.0264 -0.0334,-0.0334 -0.0199,-0.01 -0.0511,0.0157 -0.0668,0 -0.008,-0.008 0.005,-0.0234 0,-0.0334 -0.0369,-0.0739 -0.0207,-0.0104 -0.0668,-0.0334 -0.0141,-0.007 -0.0223,-0.0223 -0.0334,-0.0334 -0.0111,-0.0111 -0.0223,-0.0223 -0.0334,-0.0334 -0.0223,-0.0223 -0.0493,-0.0406 -0.0668,-0.0668 -0.0138,-0.0207 -0.0158,-0.0492 -0.0334,-0.0668 -0.008,-0.008 -0.0234,0.005 -0.0334,0 -0.13904,-0.0695 0.0357,0.002 -0.0334,-0.0668 -0.008,-0.008 -0.0255,0.008 -0.0334,0 -0.008,-0.008 0.008,-0.0255 0,-0.0334 -0.0158,-0.0158 -0.0469,0.01 -0.0668,0 -0.0141,-0.007 -0.0193,-0.0264 -0.0334,-0.0334 -0.01,-0.005 -0.0255,0.008 -0.0334,0 -0.008,-0.008 0.005,-0.0235 0,-0.0334 -0.003,-0.006 -0.12724,-0.13044 -0.13364,-0.13364 -0.01,-0.005 -0.0234,0.005 -0.0334,0 -0.0141,-0.007 -0.0193,-0.0264 -0.0334,-0.0334 -0.01,-0.005 -0.0255,0.008 -0.0334,0 -0.008,-0.008 0.008,-0.0255 0,-0.0334 -0.008,-0.008 -0.0255,0.008 -0.0334,0 -0.008,-0.008 0.008,-0.0255 0,-0.0334 -0.0157,-0.0157 -0.0511,0.0157 -0.0668,0 -0.008,-0.008 0.008,-0.0255 0,-0.0334 -0.008,-0.008 -0.0234,0.005 -0.0334,0 -0.13904,-0.0695 0.0357,0.002 -0.0334,-0.0668 -0.008,-0.008 -0.0255,0.008 -0.0334,0 -0.008,-0.008 0.008,-0.0255 0,-0.0334 -0.0176,-0.0176 -0.0492,-0.0158 -0.0668,-0.0334 -0.0176,-0.0176 -0.0196,-0.0461 -0.0334,-0.0668 -0.009,-0.0131 -0.0264,-0.0193 -0.0334,-0.0334 -0.005,-0.01 0.008,-0.0255 0,-0.0334 -0.008,-0.008 -0.0255,0.008 -0.0334,0 -0.008,-0.008 0.008,-0.0255 0,-0.0334 -0.008,-0.008 -0.0255,0.008 -0.0334,0 -0.008,-0.008 0.008,-0.0255 0,-0.0334 -0.008,-0.008 -0.0234,0.005 -0.0334,0 -0.0282,-0.0141 -0.0386,-0.0527 -0.0668,-0.0668 -0.01,-0.005 -0.0255,0.008 -0.0334,0 -0.008,-0.008 0.005,-0.0234 0,-0.0334 -0.004,-0.009 -0.0914,-0.0958 -0.10023,-0.10022 -0.01,-0.005 -0.0234,0.005 -0.0334,0 -0.1529,-0.0764 0.14177,0.0138 -0.10022,-0.0668 -0.0106,-0.004 -0.0234,0.005 -0.0334,0 -0.0401,-0.02 -0.0601,-0.0802 -0.10023,-0.10023 -0.01,-0.005 -0.0234,0.005 -0.0334,0 -0.0141,-0.007 -0.0203,-0.0247 -0.0334,-0.0334 -0.0207,-0.0138 -0.0461,-0.0196 -0.0668,-0.0334 -0.0131,-0.009 -0.0193,-0.0264 -0.0334,-0.0334 -0.0315,-0.0157 -0.0834,0.0402 -0.10023,-0.0334 -0.0442,-0.0295 -0.0652,-0.10713 -0.13363,-0.10023 -0.0632,-0.0379 -0.1345,-0.0673 -0.20045,-0.10022 -0.0223,-0.0111 -0.0492,-0.0158 -0.0668,-0.0334 -0.0176,-0.0176 -0.0158,-0.0492 -0.0334,-0.0668 -0.0176,-0.0176 -0.0461,-0.0196 -0.0668,-0.0334 -0.0131,-0.009 -0.0223,-0.0223 -0.0334,-0.0334 -0.0111,-0.0111 -0.0264,-0.0193 -0.0334,-0.0334 -0.005,-0.01 0.008,-0.0255 0,-0.0334 -0.008,-0.008 -0.0234,0.005 -0.0334,0 -0.0141,-0.007 -0.0193,-0.0264 -0.0334,-0.0334 -0.0267,-0.0134 -0.0735,0.0134 -0.10023,0 -0.0141,-0.007 -0.0193,-0.0264 -0.0334,-0.0334 -0.01,-0.005 -0.0234,0.005 -0.0334,0 -0.0141,-0.007 -0.0193,-0.0264 -0.0334,-0.0334 -0.0199,-0.01 -0.0511,0.0157 -0.0668,0 -0.008,-0.008 0.008,-0.0255 0,-0.0334 -0.008,-0.008 -0.0223,0 -0.0334,0 -0.0223,0 -0.0446,0 -0.0668,0 -0.16641,0 -0.333,0.004 -0.49906,-0.0102 z"
       id="path4506"
       inkscape:connector-curvature="0" />
    <path
       style="display:inline;fill:none;fill-rule:evenodd;stroke:#000000;stroke-width:0.26458332px;stroke-linecap:butt;stroke-linejoin:miter;stroke-opacity:1"
       d="m 146.46577,123.13095 c -8e-4,0.048 -0.0144,0.0975 -0.002,0.14386 0.0168,0.0634 0.0876,0.12098 0.13363,0.16704 0.0111,0.0111 0.0247,0.0203 0.0334,0.0334 0.0138,0.0207 0.0196,0.0461 0.0334,0.0668 0.009,0.0131 0.0223,0.0223 0.0334,0.0334 0.0557,0.0557 0.11136,0.11137 0.16704,0.16705 0.0223,0.0223 0.0445,0.0445 0.0668,0.0668 0.0223,0.0223 0.0416,0.0479 0.0668,0.0668 0.0199,0.0149 0.0477,0.0175 0.0668,0.0334 0.0445,0.0446 0.0891,0.0891 0.13363,0.13364 0.0223,0.0111 0.0469,0.0185 0.0668,0.0334 0.0252,0.0189 0.0398,0.0506 0.0668,0.0668 0.0302,0.0181 0.07,0.0153 0.10023,0.0334 0.054,0.0324 0.0832,0.0958 0.13363,0.13363 0.0199,0.0149 0.0446,0.0223 0.0668,0.0334 0.0223,0.0223 0.0416,0.0479 0.0668,0.0668 0.0398,0.0299 0.0922,0.0392 0.13364,0.0668 0.0131,0.009 0.0203,0.0247 0.0334,0.0334 0.0207,0.0138 0.0469,0.0185 0.0668,0.0334 0.0252,0.0189 0.0446,0.0446 0.0668,0.0668 0.0111,0.0111 0.0193,0.0264 0.0334,0.0334 0.01,0.005 0.0234,-0.005 0.0334,0 0.01,0.005 0.13115,0.12619 0.13363,0.13364 0.007,0.0211 -0.01,0.0469 0,0.0668 0.005,0.01 0.0234,-0.005 0.0334,0 0.0512,0.0256 0.0261,0.0595 0.0668,0.10023 0.008,0.008 0.0255,-0.008 0.0334,0 0.0176,0.0176 0.0196,0.0461 0.0334,0.0668 0.0203,0.0304 0.0854,0.0706 0.10023,0.10022 0.005,0.01 -0.005,0.0234 0,0.0334 0.007,0.0141 0.0247,0.0203 0.0334,0.0334 0.0204,0.0305 0.0285,0.0811 0.0668,0.10023 0.01,0.005 0.0234,-0.005 0.0334,0 0.0512,0.0256 0.0261,0.0595 0.0668,0.10022 0.0691,0.0691 -0.003,-0.10563 0.0668,0.0334 0.01,0.0199 -0.0157,0.0511 0,0.0668 0.008,0.008 0.0255,-0.008 0.0334,0 0.0157,0.0157 -0.0157,0.0511 0,0.0668 0.0157,0.0157 0.0511,-0.0157 0.0668,0 0.008,0.008 -0.005,0.0234 0,0.0334 0.0369,0.0739 0.0207,0.0104 0.0668,0.0334 0.0141,0.007 0.0193,0.0263 0.0334,0.0334 0.01,0.005 0.0255,-0.008 0.0334,0 0.008,0.008 -0.008,0.0255 0,0.0334 0.0691,0.0691 -0.003,-0.10563 0.0668,0.0334 0.005,0.01 -0.008,0.0255 0,0.0334 0.0157,0.0157 0.0469,-0.01 0.0668,0 0.0141,0.007 0.0193,0.0263 0.0334,0.0334 0.0133,0.007 0.0934,-0.007 0.10023,0 0.008,0.008 -0.005,0.0234 0,0.0334 0.0369,0.0739 0.0207,0.0104 0.0668,0.0334 0.0141,0.007 0.0193,0.0264 0.0334,0.0334 0.01,0.005 0.0241,-0.006 0.0334,0 0.0262,0.0175 0.0445,0.0446 0.0668,0.0668 0.0111,0.0111 0.0193,0.0263 0.0334,0.0334 0.0199,0.01 0.0469,-0.01 0.0668,0 0.13904,0.0695 -0.0357,-0.002 0.0334,0.0668 0.008,0.008 0.0234,-0.005 0.0334,0 0.0141,0.007 0.0193,0.0263 0.0334,0.0334 0.01,0.005 0.0234,-0.005 0.0334,0 0.0356,0.0178 0.0312,0.049 0.0668,0.0668 0.0133,0.007 0.0934,-0.007 0.10023,0 0.008,0.008 -0.008,0.0255 0,0.0334 0.008,0.008 0.0234,-0.005 0.0334,0 0.0141,0.007 0.0193,0.0264 0.0334,0.0334 0.01,0.005 0.0255,-0.008 0.0334,0 0.008,0.008 -0.008,0.0255 0,0.0334 0.0157,0.0157 0.0469,-0.01 0.0668,0 0.0141,0.007 0.0193,0.0263 0.0334,0.0334 0.0594,0.0297 0.0186,-0.0185 0.0334,-0.0334 0.008,-0.008 0.0223,0 0.0334,0 0.0111,0 0.0255,-0.008 0.0334,0 0.008,0.008 -0.008,0.0255 0,0.0334 0.008,0.008 0.0223,0 0.0334,0 0.0237,0 0.19182,-0.004 0.20046,0 0.0141,0.007 0.0223,0.0223 0.0334,0.0334 0.0111,0.0111 0.0264,0.0193 0.0334,0.0334 0.01,0.0199 -0.0157,0.0511 0,0.0668 0.008,0.008 0.0255,-0.008 0.0334,0 0.008,0.008 -0.0111,0.0334 0,0.0334 0.0157,0 0.0193,-0.0263 0.0334,-0.0334 0.0199,-0.01 0.045,0.004 0.0668,0 0.1118,-0.0217 0.22275,-0.0476 0.33413,-0.0714"
       id="path4508"
       inkscape:connector-curvature="0" />
  </g>
</svg>
